<svg width="116" height="116" viewBox="0 0 116 116" fill="none" xmlns="http://www.w3.org/2000/svg">
<circle cx="58" cy="58" r="58" fill="#4ECDC4"/>
<path d="M51.875 52.875C49.125 55.625 45.8333 57 42 57C38.1667 57 34.875 55.625 32.125 52.875C29.375 50.125 28 46.8333 28 43C28 39.1667 29.375 35.875 32.125 33.125C34.875 30.375 38.1667 29 42 29C45.8333 29 49.125 30.375 51.875 33.125C54.625 35.875 56 39.1667 56 43C56 46.8333 54.625 50.125 51.875 52.875ZM51.625 61C55.625 61 59 62.4167 61.75 65.25C64.5833 68 66 71.375 66 75.375V79C66 80.6667 65.4167 82.0833 64.25 83.25C63.0833 84.4167 61.6667 85 60 85H24C22.3333 85 20.9167 84.4167 19.75 83.25C18.5833 82.0833 18 80.6667 18 79V75.375C18 71.375 19.375 68 22.125 65.25C24.9583 62.4167 28.375 61 32.375 61H33.5C36.25 62.3333 39.0833 63 42 63C44.9167 63 47.75 62.3333 50.5 61H51.625ZM86.5 53.5C84.1667 55.8333 81.3333 57 78 57C74.6667 57 71.8333 55.8333 69.5 53.5C67.1667 51.1667 66 48.3333 66 45C66 41.6667 67.1667 38.8333 69.5 36.5C71.8333 34.1667 74.6667 33 78 33C81.3333 33 84.1667 34.1667 86.5 36.5C88.8333 38.8333 90 41.6667 90 45C90 48.3333 88.8333 51.1667 86.5 53.5ZM84 61C87.8333 61 91.125 62.375 93.875 65.125C96.625 67.875 98 71.1667 98 75C98 76.6667 97.4167 78.0833 96.25 79.25C95.0833 80.4167 93.6667 81 92 81H69.875C69.875 80.9167 69.875 80.7917 69.875 80.625C69.9583 80.4583 70 80.3333 70 80.25V75.375C70 70.625 68.3333 66.4583 65 62.875C67.25 61.625 69.5833 61 72 61H72.5C74.4167 61.6667 76.25 62 78 62C79.75 62 81.5833 61.6667 83.5 61H84Z" fill="white"/>
</svg>
