<svg width="116" height="116" viewBox="0 0 116 116" fill="none" xmlns="http://www.w3.org/2000/svg">
<circle cx="58" cy="58" r="58" fill="#FF7070"/>
<path fill-rule="evenodd" clip-rule="evenodd" d="M58 98C80.0914 98 98 80.0914 98 58C98 35.9086 80.0914 18 58 18C35.9086 18 18 35.9086 18 58C18 80.0914 35.9086 98 58 98ZM62 87.7357C76.6775 85.7801 88 73.2123 88 58C81.6666 57.6667 73.3 57.5 68.5 63.5C63.7 69.5 62 82.5 62 87.7357ZM87.302 51.5364C84.3461 38.0746 72.3496 28 58 28C43.6504 28 31.6539 38.0746 28.698 51.5364C37.7721 47.9629 47.6569 46 58 46C68.3431 46 78.2279 47.9629 87.302 51.5364ZM54 87.7357C39.3225 85.7801 28 73.2123 28 58C34.3334 57.6667 42.7 57.5 47.5 63.5C52.3 69.5 54 82.5 54 87.7357Z" fill="white"/>
</svg>
