<svg width="116" height="116" viewBox="0 0 116 116" fill="none" xmlns="http://www.w3.org/2000/svg">
<circle cx="58" cy="58" r="58" fill="#FFBD00"/>
<path d="M88.8125 39.5C89.6979 39.5 90.4505 39.8099 91.0703 40.4297C91.6901 41.0495 92 41.8021 92 42.6875V53.3125C92 54.1979 91.6901 54.9505 91.0703 55.5703C90.4505 56.1901 89.6979 56.5 88.8125 56.5H87.75V78.5469C87.75 79.5208 87.4401 80.362 86.8203 81.0703C86.2005 81.6901 85.3594 82 84.2969 82H83.5V86.25C83.5 87.401 83.0573 88.375 82.1719 89.1719C81.375 90.0573 80.401 90.5 79.25 90.5H75C73.849 90.5 72.8307 90.0573 71.9453 89.1719C71.1484 88.375 70.75 87.401 70.75 86.25V82H45.25V86.25C45.25 87.401 44.8073 88.375 43.9219 89.1719C43.125 90.0573 42.151 90.5 41 90.5H36.75C35.599 90.5 34.5807 90.0573 33.6953 89.1719C32.8984 88.375 32.5 87.401 32.5 86.25V82C31.349 82 30.3307 81.6016 29.4453 80.8047C28.6484 79.9193 28.25 78.901 28.25 77.75V56.5H27.1875C26.3021 56.5 25.5495 56.1901 24.9297 55.5703C24.3099 54.9505 24 54.1979 24 53.3125V42.6875C24 41.8021 24.3099 41.0495 24.9297 40.4297C25.5495 39.8099 26.3021 39.5 27.1875 39.5H28.25V33.125C28.25 30.1146 31.1276 27.5911 36.8828 25.5547C42.638 23.5182 49.6771 22.5 58 22.5C66.3229 22.5 73.362 23.5182 79.1172 25.5547C84.8724 27.5911 87.75 30.1146 87.75 33.125V39.5H88.8125ZM45.25 32.0625V34.1875C45.25 34.8958 45.6042 35.25 46.3125 35.25H69.6875C70.3958 35.25 70.75 34.8958 70.75 34.1875V32.0625C70.75 31.3542 70.3958 31 69.6875 31H46.3125C45.6042 31 45.25 31.3542 45.25 32.0625ZM35.8203 74.4297C36.7057 75.2266 37.724 75.625 38.875 75.625C40.026 75.625 41 75.2266 41.7969 74.4297C42.6823 73.5443 43.125 72.526 43.125 71.375C43.125 70.224 42.6823 69.25 41.7969 68.4531C41 67.5677 40.026 67.125 38.875 67.125C37.724 67.125 36.7057 67.5677 35.8203 68.4531C35.0234 69.25 34.625 70.224 34.625 71.375C34.625 72.526 35.0234 73.5443 35.8203 74.4297ZM55.875 60.75V39.5H41C39.849 39.5 38.8307 39.9427 37.9453 40.8281C37.1484 41.625 36.75 42.599 36.75 43.75V56.5C36.75 57.651 37.1484 58.6693 37.9453 59.5547C38.8307 60.3516 39.849 60.75 41 60.75H55.875ZM60.125 60.75H75C76.151 60.75 77.125 60.3516 77.9219 59.5547C78.8073 58.6693 79.25 57.651 79.25 56.5V43.75C79.25 42.599 78.8073 41.625 77.9219 40.8281C77.125 39.9427 76.151 39.5 75 39.5H60.125V60.75ZM74.0703 74.4297C74.9557 75.2266 75.974 75.625 77.125 75.625C78.276 75.625 79.25 75.2266 80.0469 74.4297C80.9323 73.5443 81.375 72.526 81.375 71.375C81.375 70.224 80.9323 69.25 80.0469 68.4531C79.25 67.5677 78.276 67.125 77.125 67.125C75.974 67.125 74.9557 67.5677 74.0703 68.4531C73.2734 69.25 72.875 70.224 72.875 71.375C72.875 72.526 73.2734 73.5443 74.0703 74.4297Z" fill="white"/>
</svg>
