<svg width="2500" height="2500" viewBox="0 0 2500 2500" fill="none" xmlns="http://www.w3.org/2000/svg">
<path fill-rule="evenodd" clip-rule="evenodd" d="M2389.71 1250C2389.71 620.616 1879.4 110.295 1250 110.295C620.616 110.295 110.295 620.603 110.295 1250C110.295 1879.4 620.616 2389.71 1250 2389.71C1879.4 2389.71 2389.71 1879.4 2389.71 1250V1250Z" fill="#123164"/>
<path fill-rule="evenodd" clip-rule="evenodd" d="M1250 192.925C1830.79 192.925 2307.07 666.789 2307.07 1250C2307.07 1830.79 1830.79 2307.1 1250 2307.1C666.789 2307.1 192.925 1830.79 192.925 1250C192.925 666.789 666.789 192.925 1250 192.925V192.925Z" fill="#DBDCDD"/>
<path fill-rule="evenodd" clip-rule="evenodd" d="M2268.22 1250C2268.22 686.23 1811.36 231.809 1250 231.809C688.656 231.809 231.796 686.23 231.796 1250C231.796 1811.36 688.656 2268.22 1250 2268.22C1811.36 2268.22 2268.22 1811.36 2268.22 1250V1250Z" fill="#123164"/>
<path fill-rule="evenodd" clip-rule="evenodd" d="M703.234 827.173C725.101 846.615 759.12 883.06 810.156 883.06C863.618 883.06 902.501 863.618 938.946 863.618C965.69 863.618 1011.85 878.196 1033.73 924.368C1021.58 914.641 997.271 902.488 955.962 902.488C926.806 902.488 875.77 931.657 832.023 931.657C763.984 931.657 725.101 875.771 703.234 827.173V827.173Z" fill="#DBDCDD"/>
<path fill-rule="evenodd" clip-rule="evenodd" d="M1072.6 635.194L951.099 353.309C1002.13 353.309 1053.17 375.176 1053.17 416.498C1053.17 428.651 1048.31 443.229 1038.59 457.807C1038.59 460.232 1038.59 460.232 1041.02 460.232C1050.75 450.505 1062.89 443.216 1077.46 443.216C1104.21 443.216 1123.65 465.096 1123.65 491.826C1123.65 516.132 1104.21 537.999 1077.46 537.999H1067.75C1070.19 547.726 1104.21 567.155 1143.09 567.155C1172.25 567.155 1206.27 555.002 1225.71 516.119C1218.42 523.408 1206.27 525.846 1196.54 525.846C1169.81 525.846 1147.94 506.404 1147.94 479.674C1147.94 452.943 1169.81 431.063 1196.54 431.063C1206.27 431.063 1215.98 433.501 1223.27 438.352C1217.99 434.393 1213.7 429.257 1210.74 423.352C1207.79 417.447 1206.25 410.935 1206.25 404.332C1206.25 380.027 1228.13 358.16 1254.86 358.16C1281.61 358.16 1303.46 380.04 1303.46 404.332C1303.46 416.485 1298.6 428.638 1288.9 435.927C1296.17 433.488 1303.46 431.063 1310.76 431.063C1337.49 431.063 1359.35 452.943 1359.35 479.674C1359.35 506.404 1337.48 525.846 1310.76 525.846C1298.6 525.846 1288.9 520.982 1279.17 516.119C1286.46 535.56 1322.89 569.58 1366.64 569.58C1390.96 569.58 1417.69 559.853 1441.98 537.986H1434.69C1405.53 537.986 1383.67 516.106 1383.67 491.813C1383.67 465.083 1405.53 443.203 1434.69 443.203C1446.86 443.203 1459.01 450.492 1468.71 460.219H1471.15C1471.15 460.219 1473.59 460.219 1473.59 457.794C1461.42 443.203 1456.58 428.625 1456.58 416.485C1456.58 375.163 1507.61 353.296 1556.22 353.296L1439.57 632.756H1087.19C1082.33 632.769 1077.46 632.769 1072.6 635.194V635.194Z" fill="#D8B146"/>
<path fill-rule="evenodd" clip-rule="evenodd" d="M1036.15 695.945C1041.02 666.789 1062.89 632.769 1087.19 632.769H1439.54C1446.83 640.058 1454.13 649.785 1461.41 659.499C1485.73 649.772 1510.02 647.347 1529.47 647.347C1546.48 647.347 1558.63 649.785 1561.07 649.785C1561.07 649.785 1575.63 652.223 1578.07 657.074C1561.07 695.957 1548.91 717.825 1534.35 737.266C1595.1 800.455 1619.39 878.209 1607.23 977.842C1590.22 968.128 1556.2 953.537 1536.75 948.686C1568.34 997.284 1578.07 1041.03 1578.07 1089.63C1578.07 1123.65 1570.78 1160.11 1556.2 1194.13L1546.48 1220.86C1527.05 1194.13 1512.46 1174.68 1490.59 1157.68C1495.45 1174.7 1502.73 1211.14 1502.73 1235.45C1502.73 1301.06 1476 1359.37 1415.26 1398.26C1403.1 1366.66 1378.8 1320.52 1354.51 1291.33C1356.95 1352.11 1354.51 1422.58 1330.19 1468.74C1284.03 1529.51 1220.84 1565.96 1121.21 1590.25C1138.23 1548.93 1152.8 1439.58 1145.52 1308.36C1126.07 1337.52 1104.21 1393.43 1096.9 1463.87C1072.6 1444.44 999.709 1390.99 999.709 1296.2C999.709 1257.31 1014.29 1218.44 1038.59 1179.56C1004.56 1194.14 980.268 1216.01 955.962 1264.6C948.673 1196.56 960.826 1123.66 994.846 1070.2C907.365 1067.76 883.059 1016.74 887.923 938.972C912.228 960.852 938.959 975.43 975.404 975.43C1011.85 975.43 1058.03 960.852 1104.21 900.102C1086.38 890.263 1067.66 882.126 1048.31 875.796C1031.29 870.933 1004.56 866.069 977.829 832.049C968.102 819.897 951.099 817.458 931.657 817.458C907.352 817.458 870.894 822.322 815.007 851.491C822.296 710.549 890.348 666.801 943.81 666.801C970.54 666.788 1002.13 676.503 1036.15 695.945V695.945ZM744.542 1641.23C834.449 1641.23 917.079 1655.82 917.079 1731.17H795.565C795.565 1699.57 773.698 1694.71 744.529 1694.71C717.799 1694.71 698.357 1702 698.357 1721.44C698.357 1740.89 715.373 1750.59 759.107 1750.59C868.455 1750.59 917.066 1770.05 926.78 1821.07L997.258 1646.11H1155.22L1230.55 1833.24L1308.31 1646.11H1463.82L1551.31 1852.67V1646.11H1801.62C1864.79 1646.11 1879.38 1689.86 1879.38 1716.59C1879.38 1740.91 1869.66 1774.93 1821.05 1782.2C1876.96 1787.06 1889.09 1828.39 1889.09 1852.68C1889.09 1881.86 1867.22 1928.02 1813.77 1928.02H1473.55L1456.54 1884.3H1318.03L1298.57 1928.02H1164.94L1145.5 1884.3H1006.99L987.544 1928.02H880.621L890.335 1903.73C873.319 1918.32 844.163 1935.32 746.955 1935.32C654.61 1935.32 571.993 1915.89 569.554 1840.55H693.493C693.493 1857.56 705.646 1877.01 744.529 1877.01C793.14 1877.01 797.991 1862.42 797.991 1850.27C797.991 1833.26 785.838 1818.67 727.513 1818.67C642.457 1818.67 581.707 1804.11 581.707 1736.07C581.733 1658.25 671.652 1641.23 744.542 1641.23V1641.23ZM1344.78 1818.63H1429.85L1386.1 1714.14L1344.78 1818.63ZM1033.73 1818.63H1118.78L1075.04 1714.14L1033.73 1818.63V1818.63ZM1743.32 1755.46C1753.02 1755.46 1762.75 1745.73 1762.75 1733.59C1762.75 1723.86 1753.02 1714.14 1743.32 1714.14H1653.39V1755.46H1743.32ZM1653.39 1855.08H1748.16C1760.32 1855.08 1770.05 1845.38 1770.05 1835.65C1770.05 1823.48 1760.32 1816.22 1748.16 1816.22H1653.39V1855.08V1855.08Z" fill="#DBDCDD"/>
<path fill-rule="evenodd" clip-rule="evenodd" d="M1140.65 739.692C1140.65 749.406 1128.5 763.997 1106.63 763.997C1087.19 763.997 1077.46 751.844 1075.04 742.117C1070.17 742.117 1065.31 742.117 1060.45 739.692C1060.45 773.711 1084.75 783.439 1109.06 783.439C1126.07 783.439 1152.8 778.575 1160.09 739.692H1140.65V739.692Z" fill="#B01842"/>
<path fill-rule="evenodd" clip-rule="evenodd" d="M1033.73 729.964C999.71 710.523 968.115 698.37 943.81 698.37C885.485 698.37 861.192 763.984 851.465 800.442C883.059 790.715 909.79 785.851 931.67 785.851C963.264 785.851 985.131 793.14 1002.15 812.582C1019.16 836.887 1041.03 841.751 1048.32 841.751C1079.91 851.478 1135.8 870.907 1135.8 897.65C1135.8 902.514 1135.8 909.803 1128.51 917.092C1072.61 987.557 1021.59 1007 977.842 1007C955.962 1007 938.959 1002.13 924.381 997.271C936.534 1031.29 970.553 1038.59 997.284 1038.59C1019.16 1038.59 1038.61 1036.15 1079.9 1026.44C1036.17 1060.46 999.709 1104.21 989.995 1172.25C1028.88 1143.09 1070.19 1135.79 1113.93 1135.79C1062.9 1189.25 1033.74 1242.71 1033.74 1296.17C1033.74 1352.09 1058.05 1383.67 1075.05 1403.1C1094.49 1313.19 1140.66 1257.29 1169.82 1228.13C1186.84 1354.51 1177.11 1490.59 1167.4 1544.04C1220.86 1524.61 1267.03 1500.29 1303.47 1451.71C1325.34 1415.25 1327.77 1308.32 1320.49 1220.84C1366.65 1250.01 1407.96 1303.47 1427.41 1347.22C1454.14 1320.49 1468.71 1284.05 1468.71 1235.43C1468.71 1181.97 1451.71 1133.38 1434.69 1096.92C1473.57 1109.07 1507.59 1126.09 1534.35 1157.67C1541.63 1133.36 1546.49 1111.5 1546.49 1087.19C1546.49 1002.13 1500.3 941.384 1468.72 909.79C1519.77 909.79 1548.93 919.517 1578.08 929.232C1580.52 875.77 1565.92 812.582 1517.33 761.559C1473.59 812.595 1432.26 841.751 1349.66 870.907C1422.56 926.806 1400.68 1011.85 1332.64 1096.9C1325.35 1060.45 1315.64 1028.87 1291.32 1002.13C1296.19 1048.31 1284.05 1133.36 1189.26 1179.54C1191.7 1143.08 1186.82 1111.48 1179.55 1079.89C1172.26 1087.18 1160.11 1096.9 1147.95 1106.63C1145.52 1096.9 1143.09 1079.89 1145.52 1067.75C1162.53 1053.17 1177.11 1033.73 1194.11 1014.29C1208.7 1050.75 1215.99 1099.34 1218.42 1121.21C1252.45 1089.62 1279.18 1031.29 1245.16 926.806C1296.19 953.537 1322.92 980.268 1342.37 1024.01C1395.82 934.095 1339.93 887.936 1257.31 856.342C1354.54 844.189 1473.59 800.455 1534.36 678.954C1493.04 676.516 1429.86 691.107 1369.1 768.861C1361.81 763.997 1352.1 756.708 1349.67 749.419C1373.97 715.399 1403.12 688.669 1434.72 671.665C1432.28 666.802 1429.88 661.938 1427.44 661.938H1089.62C1077.46 661.938 1065.31 683.818 1060.45 708.11C1067.74 710.549 1079.89 710.549 1092.04 710.549H1130.92C1155.23 710.549 1191.67 712.974 1213.54 727.565C1211.55 735.821 1207.35 743.38 1201.39 749.432C1196.53 747.007 1191.67 747.007 1186.81 744.568C1174.66 800.468 1135.78 812.608 1109.04 812.608C1041.02 812.582 1028.87 759.133 1033.73 729.964V729.964Z" fill="#B01842"/>
</svg>
