<svg width="98" height="100" viewBox="0 0 98 100" fill="none" xmlns="http://www.w3.org/2000/svg">
<path fill-rule="evenodd" clip-rule="evenodd" d="M93 42C95.7614 42 98 39.7614 98 37C98 34.2386 95.7614 32 93 32C90.2386 32 88 34.2386 88 37C88 39.7614 90.2386 42 93 42Z" fill="#DDBB9E"/>
<path fill-rule="evenodd" clip-rule="evenodd" d="M93 68C95.7614 68 98 65.7614 98 63C98 60.2386 95.7614 58 93 58C90.2386 58 88 60.2386 88 63C88 65.7614 90.2386 68 93 68Z" fill="#DDBB9E"/>
<path fill-rule="evenodd" clip-rule="evenodd" d="M96.5797 38C91.3125 16.1814 72.0081 0 49 0C21.938 0 0 22.3858 0 50C0 77.6142 21.938 100 49 100C72.0081 100 91.3125 83.8186 96.5797 62H92.5261C87.7414 81.0271 71.8574 95 53 95C30.3563 95 12 74.8528 12 50C12 25.1472 30.3563 5 53 5C71.8574 5 87.7414 18.9729 92.5261 38H96.5797Z" fill="#DDBB9E"/>
</svg>
