<svg width="52" height="52" viewBox="0 0 52 52" fill="none" xmlns="http://www.w3.org/2000/svg">
<path fill-rule="evenodd" clip-rule="evenodd" d="M52 26C52 40.3594 40.3594 52 26 52C11.6406 52 0 40.3594 0 26C0 11.6406 11.6406 0 26 0C40.3594 0 52 11.6406 52 26ZM50 26C50 38.1503 40.1503 48 28 48C15.8497 48 6 38.1503 6 26C6 13.8497 15.8497 4 28 4C40.1503 4 50 13.8497 50 26Z" fill="#DDBB9E"/>
<path fill-rule="evenodd" clip-rule="evenodd" d="M48.6087 18.0566C46.2543 15.2583 42.877 13.3089 38.9609 12.828C30.7384 11.8184 23.2543 17.6657 22.2447 25.8882C21.7639 29.8042 22.8383 33.5528 24.984 36.5142C26.7906 25.125 37.1206 17.0543 48.6087 18.0566Z" fill="#DDBB9E"/>
</svg>
