<svg width="53" height="101" viewBox="0 0 53 101" fill="none" xmlns="http://www.w3.org/2000/svg">
<path fill-rule="evenodd" clip-rule="evenodd" d="M7.08308 4C7.08308 4 7.18702 74.7962 7.08308 76.8435C7.08308 76.8435 7.28131 73.8144 7.35986 73.2076C7.43842 72.6009 7.5378 70.1062 9.0307 65.1677C10.5042 60.2935 11.5103 58.498 13.2564 55.9515C15.0024 53.4049 17.784 50.4741 20.8473 48.7958C23.9106 47.1176 26.5547 46.9463 28.4505 46.8469C29.7612 46.7782 31.038 46.9577 32.2808 47.3855C33.5237 47.8132 34.6473 48.5405 35.6516 49.5675C36.656 50.5945 37.4835 51.9417 38.1341 53.6091C38.7848 55.2766 39.1733 57.3157 39.2996 59.7264C39.3364 60.4286 39.3448 61.3728 39.3249 62.5591C39.3049 63.7453 39.2744 65.0671 39.2334 66.5244C39.1925 67.9816 39.1385 69.5276 39.0716 71.1622C39.0048 72.7969 38.9539 74.4014 38.9191 75.9757C38.8842 77.55 38.8629 79.0472 38.8552 80.4676C38.8475 81.8879 38.8713 83.1247 38.9265 84.1779C39.0221 86.0035 39.1761 87.4858 39.3883 88.6247C39.6006 89.7636 39.8997 90.6573 40.2858 91.306C40.6718 91.9547 41.1638 92.3865 41.7618 92.6016C42.3599 92.8167 43.0801 92.9022 43.9227 92.858C45.1398 92.7942 46.3948 92.5583 47.6877 92.1502C48.9807 91.7422 50.2782 91.1989 51.5804 90.5204L52.3432 92.3111C51.5361 93.034 50.5074 93.7803 49.2569 94.5499C48.0064 95.3195 46.6885 96.034 45.3031 96.6934C43.9177 97.3527 42.5324 97.9006 41.1471 98.337C39.7618 98.7733 38.5308 99.0197 37.4542 99.0762C36.1903 99.1424 35.1778 98.8552 34.4166 98.2144C33.6555 97.5737 33.0628 96.6777 32.6387 95.5265C32.2146 94.3752 31.9088 93.0183 31.7213 91.4556C31.5338 89.893 31.3928 88.2105 31.2984 86.4083C31.1831 84.2082 31.1404 81.9398 31.1705 79.603C31.2006 77.2661 31.2541 75.0396 31.3309 72.9233C31.4078 70.807 31.4772 68.8847 31.5392 67.1564C31.6011 65.4282 31.6052 64.0491 31.5512 63.0193C31.4077 60.2808 30.787 58.2891 29.689 57.0441C28.5911 55.7991 26.7012 55.2468 25.4793 55.3109C24.2573 55.3749 22.7321 55.4549 20.2876 57.308C17.8432 59.1611 16.7204 60.5122 15.601 62.4196C14.4815 64.327 13.552 66.1374 12.1996 70.5795C10.8473 75.0216 9.23154 85.1122 8.68751 88.6142C8.14348 92.1163 9.60368 97.4378 7.86292 99.078C6.12215 100.718 3.93154 101.537 1.68975 99.4015C-0.552048 97.2659 3.40698 87.516 3.1917 83.4084C2.97643 79.3008 2.94801 4.21671 2.94801 4.21671L7.08308 4Z" fill="#DDBB9E"/>
<path fill-rule="evenodd" clip-rule="evenodd" d="M5 10C7.76142 10 10 7.76142 10 5C10 2.23858 7.76142 0 5 0C2.23858 0 0 2.23858 0 5C0 7.76142 2.23858 10 5 10Z" fill="#DDBB9E"/>
</svg>
