<svg width="448" height="192" viewBox="0 0 448 192" fill="none" xmlns="http://www.w3.org/2000/svg">
<g filter="url(#filter0_i)">
<g clip-path="url(#clip0)">
<path fill-rule="evenodd" clip-rule="evenodd" d="M395.26 90.2961C396.247 89.532 398.927 87.9396 400.784 89.2961C402.378 90.4607 402.208 93.4011 402.212 94.1054C402.233 97.8928 402.293 107.105 402.206 108.832C402.206 108.832 402.404 105.802 402.482 105.196C402.561 104.589 402.66 102.094 404.153 97.1558C405.627 92.2816 406.633 90.4861 408.379 87.9396C410.125 85.393 412.906 82.4622 415.97 80.7839C419.033 79.1057 421.677 78.9344 423.573 78.835C424.884 78.7663 426.16 78.9458 427.403 79.3736C428.646 79.8013 429.77 80.5286 430.774 81.5556C431.778 82.5826 432.606 83.9298 433.257 85.5972C433.907 87.2647 434.296 89.3038 434.422 91.7145C434.459 92.4167 434.467 93.3609 434.447 94.5472C434.427 95.7334 434.397 97.0552 434.356 98.5125C434.315 99.9697 434.261 101.516 434.194 103.15C434.127 104.785 434.076 106.389 434.041 107.964C434.007 109.538 433.985 111.035 433.978 112.456C433.97 113.876 433.994 115.113 434.049 116.166C434.145 117.992 434.299 119.474 434.511 120.613C434.723 121.752 435.022 122.645 435.408 123.294C435.794 123.943 436.286 124.375 436.884 124.59C437.482 124.805 438.203 124.89 439.045 124.846C440.262 124.782 441.517 124.546 442.81 124.138C444.103 123.73 445.401 123.187 446.703 122.509L447.466 124.299C446.659 125.022 445.63 125.768 444.379 126.538C443.129 127.308 441.811 128.022 440.426 128.681C439.04 129.341 437.655 129.889 436.27 130.325C434.884 130.761 433.653 131.008 432.577 131.064C431.313 131.131 430.3 130.843 429.539 130.203C428.778 129.562 428.185 128.666 427.761 127.515C427.337 126.363 427.031 125.006 426.844 123.444C426.656 121.881 426.515 120.199 426.421 118.396C426.305 116.196 426.263 113.928 426.293 111.591C426.323 109.254 426.377 107.028 426.453 104.911C426.53 102.795 426.6 100.873 426.662 99.1445C426.724 97.4163 426.728 96.0372 426.674 95.0074C426.53 92.2689 425.909 90.2772 424.811 89.0322C423.714 87.7872 421.824 87.2349 420.602 87.299C419.38 87.363 417.855 87.443 415.41 89.2961C412.966 91.1492 411.843 92.5003 410.723 94.4077C409.604 96.3151 408.674 98.1255 407.322 102.568C405.97 107.01 404.354 117.1 403.81 120.602C403.266 124.104 404.726 129.426 402.985 131.066C401.245 132.706 399.054 133.525 396.812 131.39C394.57 129.254 398.529 119.504 398.314 115.397C398.183 112.894 398.314 102.348 398.314 95.8491C398.314 94.8801 398.314 93.5976 397.32 92.8847C396.326 92.1718 393 92.8847 393 92.8847C393 92.8847 394.061 91.225 395.26 90.2961Z" fill="#DDBB9E"/>
</g>
<path fill-rule="evenodd" clip-rule="evenodd" d="M373 106C373 120.359 361.359 132 347 132C332.641 132 321 120.359 321 106C321 91.6406 332.641 80 347 80C361.359 80 373 91.6406 373 106ZM371 106C371 118.15 361.15 128 349 128C336.85 128 327 118.15 327 106C327 93.8497 336.85 84 349 84C361.15 84 371 93.8497 371 106Z" fill="#DDBB9E"/>
<path fill-rule="evenodd" clip-rule="evenodd" d="M369.609 98.0566C367.254 95.2583 363.877 93.3089 359.961 92.828C351.738 91.8184 344.254 97.6657 343.245 105.888C342.764 109.804 343.838 113.553 345.984 116.514C347.791 105.125 358.121 97.0543 369.609 98.0566Z" fill="#DDBB9E"/>
<g clip-path="url(#clip1)">
<path fill-rule="evenodd" clip-rule="evenodd" d="M296.669 16.6438C275.679 11.0196 253.708 24.9555 247.595 47.7705C241.481 70.5856 253.541 93.6401 274.531 99.2643L276.521 91.8393C259.865 86.6629 250.685 67.0421 255.951 47.3878C261.217 27.7334 278.978 15.3315 295.991 19.1764L296.669 16.6438L296.669 16.6438V16.6438ZM254.385 174.449C275.375 180.073 297.347 166.137 303.46 143.322C309.573 120.507 297.513 97.4527 276.524 91.8285L274.534 99.2535C291.19 104.43 300.37 124.051 295.104 143.705C289.837 163.359 272.077 175.761 255.064 171.916L254.385 174.449L254.385 174.449V174.449Z" fill="#DDBB9E"/>
</g>
<g clip-path="url(#clip2)">
<path fill-rule="evenodd" clip-rule="evenodd" d="M213 81C215.761 81 218 78.7614 218 76C218 73.2386 215.761 71 213 71C210.239 71 208 73.2386 208 76C208 78.7614 210.239 81 213 81Z" fill="#DDBB9E"/>
<path fill-rule="evenodd" clip-rule="evenodd" d="M213 80C227.359 80 239 91.6406 239 106C239 120.359 227.359 132 213 132C198.641 132 187 120.359 187 106C187 91.6406 198.641 80 213 80ZM213 82C225.15 82 235 91.8497 235 104C235 116.15 225.15 126 213 126C200.85 126 191 116.15 191 104C191 91.8497 200.85 82 213 82Z" fill="#DDBB9E"/>
</g>
<path fill-rule="evenodd" clip-rule="evenodd" d="M129.083 36C129.083 36 129.187 106.796 129.083 108.844C129.083 108.844 129.281 105.814 129.36 105.208C129.438 104.601 129.538 102.106 131.031 97.1677C132.504 92.2935 133.51 90.498 135.256 87.9515C137.002 85.4049 139.784 82.4741 142.847 80.7958C145.911 79.1176 148.555 78.9463 150.451 78.8469C151.761 78.7782 153.038 78.9577 154.281 79.3855C155.524 79.8132 156.647 80.5405 157.652 81.5675C158.656 82.5945 159.483 83.9417 160.134 85.6091C160.785 87.2766 161.173 89.3157 161.3 91.7264C161.336 92.4286 161.345 93.3728 161.325 94.5591C161.305 95.7453 161.274 97.0671 161.233 98.5244C161.192 99.9816 161.139 101.528 161.072 103.162C161.005 104.797 160.954 106.401 160.919 107.976C160.884 109.55 160.863 111.047 160.855 112.468C160.848 113.888 160.871 115.125 160.926 116.178C161.022 118.004 161.176 119.486 161.388 120.625C161.601 121.764 161.9 122.657 162.286 123.306C162.672 123.955 163.164 124.387 163.762 124.602C164.36 124.817 165.08 124.902 165.923 124.858C167.14 124.794 168.395 124.558 169.688 124.15C170.981 123.742 172.278 123.199 173.58 122.52L174.343 124.311C173.536 125.034 172.507 125.78 171.257 126.55C170.006 127.32 168.688 128.034 167.303 128.693C165.918 129.353 164.532 129.901 163.147 130.337C161.762 130.773 160.531 131.02 159.454 131.076C158.19 131.142 157.178 130.855 156.417 130.214C155.655 129.574 155.063 128.678 154.639 127.526C154.215 126.375 153.909 125.018 153.721 123.456C153.534 121.893 153.393 120.211 153.298 118.408C153.183 116.208 153.14 113.94 153.171 111.603C153.201 109.266 153.254 107.04 153.331 104.923C153.408 102.807 153.477 100.885 153.539 99.1564C153.601 97.4282 153.605 96.0491 153.551 95.0193C153.408 92.2808 152.787 90.2891 151.689 89.0441C150.591 87.7991 148.701 87.2468 147.479 87.3109C146.257 87.3749 144.732 87.4549 142.288 89.308C139.843 91.1611 138.72 92.5122 137.601 94.4196C136.481 96.327 135.552 98.1374 134.2 102.58C132.847 107.022 131.232 117.112 130.688 120.614C130.143 124.116 131.604 129.438 129.863 131.078C128.122 132.718 125.932 133.537 123.69 131.402C121.448 129.266 125.407 119.516 125.192 115.408C124.976 111.301 124.948 36.2167 124.948 36.2167L129.083 36Z" fill="#DDBB9E"/>
<path fill-rule="evenodd" clip-rule="evenodd" d="M127 42C129.761 42 132 39.7614 132 37C132 34.2386 129.761 32 127 32C124.239 32 122 34.2386 122 37C122 39.7614 124.239 42 127 42Z" fill="#DDBB9E"/>
<path fill-rule="evenodd" clip-rule="evenodd" d="M93 74C95.7614 74 98 71.7614 98 69C98 66.2386 95.7614 64 93 64C90.2386 64 88 66.2386 88 69C88 71.7614 90.2386 74 93 74Z" fill="#DDBB9E"/>
<path fill-rule="evenodd" clip-rule="evenodd" d="M93 100C95.7614 100 98 97.7614 98 95C98 92.2386 95.7614 90 93 90C90.2386 90 88 92.2386 88 95C88 97.7614 90.2386 100 93 100Z" fill="#DDBB9E"/>
<path fill-rule="evenodd" clip-rule="evenodd" d="M96.5797 70C91.3125 48.1814 72.0081 32 49 32C21.938 32 0 54.3858 0 82C0 109.614 21.938 132 49 132C72.0081 132 91.3125 115.819 96.5797 94H92.5261C87.7414 113.027 71.8574 127 53 127C30.3563 127 12 106.853 12 82C12 57.1472 30.3563 37 53 37C71.8574 37 87.7414 50.9729 92.5261 70H96.5797Z" fill="#DDBB9E"/>
</g>
<defs>
<filter id="filter0_i" x="0" y="0" width="448" height="191.641" filterUnits="userSpaceOnUse" color-interpolation-filters="sRGB">
<feFlood flood-opacity="0" result="BackgroundImageFix"/>
<feBlend mode="normal" in="SourceGraphic" in2="BackgroundImageFix" result="shape"/>
<feColorMatrix in="SourceAlpha" type="matrix" values="0 0 0 0 0 0 0 0 0 0 0 0 0 0 0 0 0 0 127 0" result="hardAlpha"/>
<feOffset/>
<feGaussianBlur stdDeviation="2"/>
<feComposite in2="hardAlpha" operator="arithmetic" k2="-1" k3="1"/>
<feColorMatrix type="matrix" values="0 0 0 0 0.831373 0 0 0 0 0.552941 0 0 0 0 0.329412 0 0 0 0.25 0"/>
<feBlend mode="normal" in2="shape" result="effect1_innerShadow"/>
</filter>
<clipPath id="clip0">
<rect width="55" height="54" fill="white" transform="translate(393 78.8207)"/>
</clipPath>
<clipPath id="clip1">
<rect width="130" height="181" fill="white" transform="translate(203 11.3302) rotate(-5)"/>
</clipPath>
<clipPath id="clip2">
<rect width="52" height="61" fill="white" transform="translate(187 71)"/>
</clipPath>
</defs>
</svg>
