<svg width="55" height="55" viewBox="0 0 55 55" fill="none" xmlns="http://www.w3.org/2000/svg">
<g clip-path="url(#clip0)">
<path fill-rule="evenodd" clip-rule="evenodd" d="M2.2605 12.2961C3.24729 11.532 5.927 9.93955 7.78394 11.2961C9.37818 12.4607 9.20807 15.4011 9.21198 16.1054C9.233 19.8928 9.29315 29.1053 9.20552 30.8316C9.20552 30.8316 9.40374 27.8025 9.4823 27.1957C9.56085 26.589 9.66023 24.0943 11.1531 19.1558C12.6266 14.2816 13.6327 12.4861 15.3788 9.93955C17.1249 7.39302 19.9064 4.46218 22.9697 2.78393C26.0331 1.10568 28.6771 0.934354 30.573 0.834997C31.8837 0.766306 33.1604 0.945823 34.4033 1.37355C35.6461 1.80128 36.7697 2.52863 37.7741 3.5556C38.7784 4.58257 39.6059 5.92977 40.2566 7.59723C40.9072 9.26469 41.2957 11.3038 41.4221 13.7145C41.4589 14.4167 41.4673 15.3609 41.4473 16.5472C41.4273 17.7334 41.3968 19.0552 41.3559 20.5125C41.3149 21.9697 41.261 23.5157 41.1941 25.1503C41.1272 26.785 41.0763 28.3895 41.0415 29.9638C41.0066 31.5381 40.9854 33.0353 40.9777 34.4557C40.9699 35.876 40.9937 37.1128 41.0489 38.166C41.1446 39.9916 41.2985 41.4739 41.5108 42.6128C41.723 43.7517 42.0221 44.6454 42.4082 45.2941C42.7942 45.9428 43.2862 46.3746 43.8843 46.5897C44.4823 46.8048 45.2026 46.8903 46.0452 46.8461C47.2623 46.7823 48.5172 46.5464 49.8102 46.1383C51.1031 45.7303 52.4006 45.187 53.7029 44.5085L54.4656 46.2992C53.6586 47.0221 52.6298 47.7684 51.3793 48.538C50.1288 49.3076 48.8109 50.0221 47.4255 50.6815C46.0402 51.3408 44.6548 51.8887 43.2695 52.3251C41.8842 52.7614 40.6532 53.0078 39.5766 53.0643C38.3127 53.1305 37.3002 52.8433 36.539 52.2025C35.7779 51.5618 35.1853 50.6658 34.7612 49.5145C34.337 48.3633 34.0312 47.0064 33.8437 45.4437C33.6562 43.8811 33.5152 42.1986 33.4208 40.3964C33.3055 38.1963 33.2629 35.9279 33.293 33.591C33.3231 31.2542 33.3765 29.0277 33.4534 26.9114C33.5302 24.7951 33.5996 22.8728 33.6616 21.1445C33.7236 19.4163 33.7276 18.0372 33.6736 17.0074C33.5301 14.2689 32.9094 12.2772 31.8115 11.0322C30.7136 9.78717 28.8237 9.23494 27.6017 9.29898C26.3798 9.36302 24.8545 9.44295 22.4101 11.2961C19.9656 13.1492 18.8429 14.5003 17.7234 16.4077C16.6039 18.3151 15.6744 20.1255 14.3221 24.5676C12.9697 29.0097 11.354 39.1003 10.8099 42.6023C10.2659 46.1044 11.7261 51.4259 9.98535 53.0661C8.24459 54.7063 6.05397 55.5252 3.81218 53.3896C1.57039 51.254 5.52941 41.5041 5.31414 37.3965C5.18296 34.8935 5.31409 24.3476 5.31414 17.8491C5.31415 16.8801 5.31414 15.5976 4.32007 14.8847C3.326 14.1718 0 14.8847 0 14.8847C0 14.8847 1.06079 13.225 2.2605 12.2961Z" fill="#DDBB9E"/>
</g>
<defs>
<clipPath id="clip0">
<rect width="55" height="54" fill="white" transform="translate(0 0.82074)"/>
</clipPath>
</defs>
</svg>
