<svg width="52" height="61" viewBox="0 0 52 61" fill="none" xmlns="http://www.w3.org/2000/svg">
<g clip-path="url(#clip0)">
<path fill-rule="evenodd" clip-rule="evenodd" d="M26 10C28.7614 10 31 7.76142 31 5C31 2.23858 28.7614 0 26 0C23.2386 0 21 2.23858 21 5C21 7.76142 23.2386 10 26 10Z" fill="#DDBB9E"/>
<path fill-rule="evenodd" clip-rule="evenodd" d="M26 9C40.3594 9 52 20.6406 52 35C52 49.3594 40.3594 61 26 61C11.6406 61 0 49.3594 0 35C0 20.6406 11.6406 9 26 9ZM26 11C38.1503 11 48 20.8497 48 33C48 45.1503 38.1503 55 26 55C13.8497 55 4 45.1503 4 33C4 20.8497 13.8497 11 26 11Z" fill="#DDBB9E"/>
</g>
<defs>
<clipPath id="clip0">
<rect width="52" height="61" fill="white"/>
</clipPath>
</defs>
</svg>
