<svg width="146" height="192" viewBox="0 0 146 192" fill="none" xmlns="http://www.w3.org/2000/svg">
<g clip-path="url(#clip0)">
<path fill-rule="evenodd" clip-rule="evenodd" d="M93.6693 16.6438C72.6794 11.0196 50.708 24.9555 44.5948 47.7705C38.4815 70.5856 50.5413 93.6401 71.5312 99.2643L73.5207 91.8393C56.8649 86.6629 47.6847 67.0421 52.9511 47.3878C58.2174 27.7334 75.9781 15.3315 92.9907 19.1764L93.6693 16.6438L93.6693 16.6438V16.6438ZM51.3855 174.449C72.3753 180.073 94.3467 166.137 100.46 143.322C106.573 120.507 94.5134 97.4527 73.5236 91.8285L71.5341 99.2535C88.1898 104.43 97.37 124.051 92.1037 143.705C86.8373 163.359 69.0766 175.761 52.0641 171.916L51.3855 174.449L51.3855 174.449V174.449Z" fill="#DDBB9E"/>
</g>
<defs>
<clipPath id="clip0">
<rect width="130" height="181" fill="white" transform="translate(0 11.3302) rotate(-5)"/>
</clipPath>
</defs>
</svg>
