<svg width="458" height="504" viewBox="0 0 458 504" fill="none" xmlns="http://www.w3.org/2000/svg">
<path fill-rule="evenodd" clip-rule="evenodd" d="M361.26 376.475C362.247 375.711 364.927 374.119 366.784 375.475C368.378 376.64 368.208 379.58 368.212 380.285C368.233 384.072 368.293 393.285 368.206 395.011C368.206 395.011 368.404 391.982 368.482 391.375C368.561 390.768 368.66 388.274 370.153 383.335C371.627 378.461 372.633 376.665 374.379 374.119C376.125 371.572 378.906 368.641 381.97 366.963C385.033 365.285 387.677 365.114 389.573 365.014C390.884 364.946 392.16 365.125 393.403 365.553C394.646 365.981 395.77 366.708 396.774 367.735C397.778 368.762 398.606 370.109 399.257 371.776C399.907 373.444 400.296 375.483 400.422 377.894C400.459 378.596 400.467 379.54 400.447 380.726C400.427 381.913 400.397 383.234 400.356 384.692C400.315 386.149 400.261 387.695 400.194 389.33C400.127 390.964 400.076 392.569 400.041 394.143C400.007 395.717 399.985 397.215 399.978 398.635C399.97 400.055 399.994 401.292 400.049 402.345C400.145 404.171 400.299 405.653 400.511 406.792C400.723 407.931 401.022 408.825 401.408 409.473C401.794 410.122 402.286 410.554 402.884 410.769C403.482 410.984 404.203 411.07 405.045 411.025C406.262 410.962 407.517 410.726 408.81 410.318C410.103 409.91 411.401 409.366 412.703 408.688L413.466 410.478C412.659 411.201 411.63 411.948 410.379 412.717C409.129 413.487 407.811 414.201 406.426 414.861C405.04 415.52 403.655 416.068 402.27 416.504C400.884 416.941 399.653 417.187 398.577 417.244C397.313 417.31 396.3 417.023 395.539 416.382C394.778 415.741 394.185 414.845 393.761 413.694C393.337 412.543 393.031 411.186 392.844 409.623C392.656 408.06 392.515 406.378 392.421 404.576C392.305 402.376 392.263 400.107 392.293 397.77C392.323 395.433 392.377 393.207 392.453 391.091C392.53 388.974 392.6 387.052 392.662 385.324C392.724 383.596 392.728 382.216 392.674 381.187C392.53 378.448 391.909 376.456 390.811 375.211C389.714 373.966 387.824 373.414 386.602 373.478C385.38 373.542 383.855 373.622 381.41 375.475C378.966 377.328 377.843 378.68 376.723 380.587C375.604 382.494 374.674 384.305 373.322 388.747C371.97 393.189 370.354 403.28 369.81 406.782C369.266 410.284 370.726 415.605 368.985 417.245C367.245 418.886 365.054 419.704 362.812 417.569C360.57 415.433 364.529 405.683 364.314 401.576C364.183 399.073 364.314 388.527 364.314 382.028C364.314 381.059 364.314 379.777 363.32 379.064C362.326 378.351 359 379.064 359 379.064C359 379.064 360.061 377.404 361.26 376.475Z" fill="#DDBB9E"/>
<path fill-rule="evenodd" clip-rule="evenodd" d="M243 393C243 407.359 231.359 419 217 419C202.641 419 191 407.359 191 393C191 378.641 202.641 367 217 367C231.359 367 243 378.641 243 393ZM241 393C241 405.15 231.15 415 219 415C206.85 415 197 405.15 197 393C197 380.85 206.85 371 219 371C231.15 371 241 380.85 241 393Z" fill="#DDBB9E"/>
<path fill-rule="evenodd" clip-rule="evenodd" d="M239.609 385.057C237.254 382.258 233.877 380.309 229.961 379.828C221.738 378.818 214.254 384.666 213.245 392.888C212.764 396.804 213.838 400.553 215.984 403.514C217.791 392.125 228.121 384.054 239.609 385.057Z" fill="#DDBB9E"/>
<g clip-path="url(#clip0)">
<path fill-rule="evenodd" clip-rule="evenodd" d="M405.669 16.6437C384.679 11.0195 362.708 24.9554 356.595 47.7705C350.481 70.5855 362.541 93.6401 383.531 99.2643L385.521 91.8393C368.865 86.6628 359.685 67.042 364.951 47.3877C370.217 27.7334 387.978 15.3314 404.991 19.1763L405.669 16.6437L405.669 16.6437V16.6437ZM363.385 174.449C384.375 180.073 406.347 166.137 412.46 143.322C418.573 120.507 406.513 97.4526 385.524 91.8284L383.534 99.2534C400.19 104.43 409.37 124.051 404.104 143.705C398.837 163.359 381.077 175.761 364.064 171.916L363.385 174.449L363.385 174.449V174.449Z" fill="#DDBB9E"/>
</g>
<g clip-path="url(#clip1)">
<path fill-rule="evenodd" clip-rule="evenodd" d="M213 87C215.761 87 218 84.7614 218 82C218 79.2386 215.761 77 213 77C210.239 77 208 79.2386 208 82C208 84.7614 210.239 87 213 87Z" fill="#DDBB9E"/>
<path fill-rule="evenodd" clip-rule="evenodd" d="M213 86C227.359 86 239 97.6406 239 112C239 126.359 227.359 138 213 138C198.641 138 187 126.359 187 112C187 97.6406 198.641 86 213 86ZM213 88C225.15 88 235 97.8497 235 110C235 122.15 225.15 132 213 132C200.85 132 191 122.15 191 110C191 97.8497 200.85 88 213 88Z" fill="#DDBB9E"/>
</g>
<path fill-rule="evenodd" clip-rule="evenodd" d="M29.0831 322C29.0831 322 29.187 392.796 29.0831 394.844C29.0831 394.844 29.2813 391.814 29.3599 391.208C29.4384 390.601 29.5378 388.106 31.0307 383.168C32.5042 378.293 33.5103 376.498 35.2564 373.951C37.0024 371.405 39.784 368.474 42.8473 366.796C45.9106 365.118 48.5547 364.946 50.4505 364.847C51.7612 364.778 53.038 364.958 54.2808 365.385C55.5237 365.813 56.6473 366.541 57.6516 367.568C58.656 368.594 59.4835 369.942 60.1341 371.609C60.7848 373.277 61.1733 375.316 61.2996 377.726C61.3364 378.429 61.3448 379.373 61.3249 380.559C61.3049 381.745 61.2744 383.067 61.2334 384.524C61.1925 385.982 61.1385 387.528 61.0716 389.162C61.0048 390.797 60.9539 392.401 60.9191 393.976C60.8842 395.55 60.8629 397.047 60.8552 398.468C60.8475 399.888 60.8713 401.125 60.9265 402.178C61.0221 404.004 61.1761 405.486 61.3883 406.625C61.6006 407.764 61.8997 408.657 62.2858 409.306C62.6718 409.955 63.1638 410.387 63.7618 410.602C64.3599 410.817 65.0801 410.902 65.9227 410.858C67.1398 410.794 68.3948 410.558 69.6877 410.15C70.9807 409.742 72.2782 409.199 73.5804 408.52L74.3432 410.311C73.5361 411.034 72.5074 411.78 71.2569 412.55C70.0064 413.32 68.6885 414.034 67.3031 414.693C65.9177 415.353 64.5324 415.901 63.1471 416.337C61.7618 416.773 60.5308 417.02 59.4542 417.076C58.1903 417.142 57.1778 416.855 56.4166 416.214C55.6555 415.574 55.0628 414.678 54.6387 413.526C54.2146 412.375 53.9088 411.018 53.7213 409.456C53.5338 407.893 53.3928 406.211 53.2984 404.408C53.1831 402.208 53.1404 399.94 53.1705 397.603C53.2006 395.266 53.2541 393.04 53.3309 390.923C53.4078 388.807 53.4772 386.885 53.5392 385.156C53.6011 383.428 53.6052 382.049 53.5512 381.019C53.4077 378.281 52.787 376.289 51.689 375.044C50.5911 373.799 48.7012 373.247 47.4793 373.311C46.2573 373.375 44.7321 373.455 42.2876 375.308C39.8432 377.161 38.7204 378.512 37.601 380.42C36.4815 382.327 35.552 384.137 34.1996 388.58C32.8473 393.022 31.2315 403.112 30.6875 406.614C30.1435 410.116 31.6037 415.438 29.8629 417.078C28.1222 418.718 25.9315 419.537 23.6897 417.402C21.448 415.266 25.407 405.516 25.1917 401.408C24.9764 397.301 24.948 322.217 24.948 322.217L29.0831 322Z" fill="#DDBB9E"/>
<path fill-rule="evenodd" clip-rule="evenodd" d="M27 328C29.7614 328 32 325.761 32 323C32 320.239 29.7614 318 27 318C24.2386 318 22 320.239 22 323C22 325.761 24.2386 328 27 328Z" fill="#DDBB9E"/>
<path fill-rule="evenodd" clip-rule="evenodd" d="M93 80C95.7614 80 98 77.7614 98 75C98 72.2386 95.7614 70 93 70C90.2386 70 88 72.2386 88 75C88 77.7614 90.2386 80 93 80Z" fill="#DDBB9E"/>
<path fill-rule="evenodd" clip-rule="evenodd" d="M93 106C95.7614 106 98 103.761 98 101C98 98.2386 95.7614 96 93 96C90.2386 96 88 98.2386 88 101C88 103.761 90.2386 106 93 106Z" fill="#DDBB9E"/>
<path fill-rule="evenodd" clip-rule="evenodd" d="M96.5797 76C91.3125 54.1814 72.0081 38 49 38C21.938 38 0 60.3858 0 88C0 115.614 21.938 138 49 138C72.0081 138 91.3125 121.819 96.5797 100H92.5261C87.7414 119.027 71.8574 133 53 133C30.3563 133 12 112.853 12 88C12 63.1472 30.3563 43 53 43C71.8574 43 87.7414 56.9729 92.5261 76H96.5797Z" fill="#DDBB9E"/>
<g filter="url(#filter0_i)">
<path d="M26.6752 208.36C28.0832 208.36 29.0912 208.112 29.6992 207.616C30.3232 207.12 30.6352 206.336 30.6352 205.264C30.6352 204.288 30.3232 203.568 29.6992 203.104C29.0912 202.624 28.0832 202.384 26.6752 202.384H26.3152V208.36H26.6752ZM26.3152 215.152C26.3152 215.328 26.3712 215.472 26.4832 215.584C26.5952 215.696 26.7312 215.784 26.8912 215.848C27.0672 215.912 27.2512 215.96 27.4432 215.992C27.6352 216.008 27.8192 216.016 27.9952 216.016C28.6032 216.016 29.1552 215.968 29.6512 215.872C30.1472 215.776 30.5712 215.608 30.9232 215.368C31.2752 215.128 31.5472 214.808 31.7392 214.408C31.9312 213.992 32.0272 213.472 32.0272 212.848C32.0272 211.696 31.6272 210.824 30.8272 210.232C30.0432 209.64 28.9632 209.344 27.5872 209.344H26.3152V215.152ZM30.2032 208.672C30.7152 208.736 31.2272 208.856 31.7392 209.032C32.2512 209.192 32.7152 209.424 33.1312 209.728C33.5472 210.032 33.8832 210.416 34.1392 210.88C34.3952 211.328 34.5232 211.864 34.5232 212.488C34.5232 213.192 34.3872 213.824 34.1152 214.384C33.8592 214.944 33.4832 215.416 32.9872 215.8C32.5072 216.184 31.9232 216.48 31.2352 216.688C30.5472 216.896 29.7872 217 28.9552 217H25.1632C24.8912 217 24.5792 217.008 24.2272 217.024C23.8912 217.04 23.5712 217.056 23.2672 217.072C22.9152 217.088 22.5552 217.104 22.1872 217.12C22.1712 217.088 22.1632 217.04 22.1632 216.976C22.1472 216.944 22.1392 216.904 22.1392 216.856C22.1392 216.808 22.1392 216.768 22.1392 216.736C22.1392 216.512 22.2272 216.384 22.4032 216.352C23.0272 216.224 23.4592 216.104 23.6992 215.992C23.9392 215.864 24.0592 215.64 24.0592 215.32V203.104C24.0592 202.944 24.0272 202.816 23.9632 202.72C23.9152 202.608 23.8272 202.52 23.6992 202.456C23.5712 202.376 23.4032 202.312 23.1952 202.264C22.9872 202.2 22.7232 202.136 22.4032 202.072C22.2272 202.04 22.1392 201.888 22.1392 201.616C22.1392 201.536 22.1472 201.472 22.1632 201.424C22.1632 201.376 22.1712 201.328 22.1872 201.28C22.6672 201.312 23.1792 201.344 23.7232 201.376C24.2832 201.392 24.7552 201.4 25.1392 201.4H28.0912C28.9872 201.4 29.7472 201.504 30.3712 201.712C31.0112 201.904 31.5312 202.176 31.9312 202.528C32.3312 202.88 32.6192 203.288 32.7952 203.752C32.9872 204.2 33.0832 204.672 33.0832 205.168C33.0832 205.536 33.0112 205.896 32.8672 206.248C32.7232 206.6 32.5232 206.928 32.2672 207.232C32.0272 207.536 31.7312 207.808 31.3792 208.048C31.0272 208.288 30.6352 208.472 30.2032 208.6V208.672ZM43.0829 206.608C43.5469 206.608 43.8909 206.72 44.1149 206.944C44.3389 207.168 44.4509 207.416 44.4509 207.688C44.4509 207.784 44.4349 207.872 44.4029 207.952C44.3709 208.032 44.2909 208.12 44.1629 208.216C44.0509 208.296 43.8829 208.4 43.6589 208.528C43.4509 208.64 43.1549 208.784 42.7709 208.96C42.6269 208.784 42.4509 208.632 42.2429 208.504C42.0509 208.376 41.8349 208.312 41.5949 208.312C41.3229 208.312 41.0749 208.392 40.8509 208.552C40.6269 208.696 40.4349 208.904 40.2749 209.176C40.1149 209.432 39.9869 209.736 39.8909 210.088C39.8109 210.424 39.7709 210.776 39.7709 211.144V215.272C39.7709 215.624 39.9549 215.888 40.3229 216.064C40.6909 216.224 41.2189 216.352 41.9069 216.448C42.0669 216.48 42.1469 216.576 42.1469 216.736C42.1469 216.832 42.1309 216.96 42.0989 217.12C41.9229 217.104 41.6989 217.088 41.4269 217.072C41.1709 217.072 40.8989 217.064 40.6109 217.048C40.3229 217.032 40.0269 217.016 39.7229 217C39.4189 217 39.1389 217 38.8829 217C38.4509 217 38.0029 217.008 37.5389 217.024C37.0749 217.056 36.6349 217.088 36.2189 217.12C36.1869 216.96 36.1709 216.832 36.1709 216.736C36.1709 216.576 36.2429 216.48 36.3869 216.448C36.7549 216.384 37.0749 216.288 37.3469 216.16C37.6349 216.032 37.7789 215.848 37.7789 215.608V209.512C37.7789 209.176 37.7549 208.896 37.7069 208.672C37.6749 208.448 37.6109 208.272 37.5149 208.144C37.4189 208 37.2749 207.896 37.0829 207.832C36.9069 207.768 36.6749 207.72 36.3869 207.688C36.1789 207.656 36.0749 207.552 36.0749 207.376C36.0749 207.28 36.0909 207.168 36.1229 207.04C36.3309 207.04 36.6189 207.032 36.9869 207.016C37.3709 206.984 37.6829 206.952 37.9229 206.92C38.2749 206.856 38.5789 206.792 38.8349 206.728C39.1069 206.648 39.3069 206.608 39.4349 206.608C39.6589 206.608 39.7709 206.728 39.7709 206.968V208.576C40.2829 208.016 40.7949 207.552 41.3069 207.184C41.8349 206.8 42.4269 206.608 43.0829 206.608ZM54.8519 216.352C55.0279 216.352 55.1239 216.52 55.1399 216.856C54.7239 217.144 54.1959 217.288 53.5559 217.288C53.2039 217.288 52.8999 217.232 52.6439 217.12C52.3879 217.024 52.1719 216.888 51.9959 216.712C51.8199 216.536 51.6839 216.336 51.5879 216.112C51.4919 215.888 51.4279 215.656 51.3959 215.416C50.9959 216.136 50.5159 216.632 49.9559 216.904C49.4119 217.16 48.7799 217.288 48.0599 217.288C47.7399 217.288 47.3959 217.256 47.0279 217.192C46.6759 217.144 46.3399 217.032 46.0199 216.856C45.6999 216.68 45.4359 216.432 45.2279 216.112C45.0199 215.792 44.9159 215.368 44.9159 214.84C44.9159 214.248 45.0519 213.752 45.3239 213.352C45.6119 212.936 45.9719 212.6 46.4039 212.344C46.8519 212.072 47.3319 211.856 47.8439 211.696C48.3719 211.536 48.8759 211.4 49.3559 211.288C49.6279 211.24 49.8759 211.192 50.0999 211.144C50.3399 211.08 50.5479 211.016 50.7239 210.952C50.9479 210.888 51.0839 210.8 51.1319 210.688C51.1959 210.576 51.2279 210.36 51.2279 210.04C51.2279 209.288 51.0839 208.672 50.7959 208.192C50.5079 207.696 49.9959 207.448 49.2599 207.448C48.9879 207.448 48.7559 207.48 48.5639 207.544C48.3719 207.608 48.2119 207.712 48.0839 207.856C47.9559 207.984 47.8439 208.16 47.7479 208.384C47.6519 208.608 47.5559 208.872 47.4599 209.176C47.4119 209.352 47.2999 209.48 47.1239 209.56C46.9639 209.64 46.6839 209.736 46.2839 209.848C46.1879 209.88 46.0679 209.912 45.9239 209.944C45.7799 209.976 45.6599 209.992 45.5639 209.992C45.4039 209.992 45.3239 209.824 45.3239 209.488C45.3239 209.136 45.4599 208.784 45.7319 208.432C46.0039 208.08 46.3479 207.768 46.7639 207.496C47.1959 207.224 47.6599 207.008 48.1559 206.848C48.6519 206.672 49.1239 206.584 49.5719 206.584C50.1319 206.584 50.6359 206.632 51.0839 206.728C51.5319 206.824 51.9159 207 52.2359 207.256C52.5559 207.512 52.7959 207.856 52.9559 208.288C53.1319 208.72 53.2199 209.28 53.2199 209.968V214.096C53.2199 214.656 53.2359 215.064 53.2679 215.32C53.3159 215.56 53.3799 215.752 53.4599 215.896C53.5719 216.12 53.6919 216.272 53.8199 216.352C53.9639 216.416 54.1079 216.448 54.2519 216.448C54.4279 216.448 54.5479 216.432 54.6119 216.4C54.6919 216.368 54.7719 216.352 54.8519 216.352ZM51.2279 211.672L50.4599 211.792C50.0439 211.872 49.6359 211.968 49.2359 212.08C48.8519 212.192 48.5079 212.352 48.2039 212.56C47.8999 212.752 47.6519 213 47.4599 213.304C47.2839 213.608 47.1959 213.984 47.1959 214.432C47.1959 215.04 47.3479 215.504 47.6519 215.824C47.9719 216.144 48.3639 216.304 48.8279 216.304C49.1319 216.304 49.4279 216.24 49.7159 216.112C50.0199 215.968 50.2759 215.776 50.4839 215.536C50.7079 215.28 50.8839 214.984 51.0119 214.648C51.1559 214.312 51.2279 213.944 51.2279 213.544V211.672ZM60.9877 207.496C60.2357 207.496 59.6197 207.824 59.1397 208.48C58.6757 209.136 58.4437 210.024 58.4437 211.144C58.4437 212.696 58.7877 213.904 59.4757 214.768C60.1797 215.632 61.1077 216.064 62.2597 216.064C62.7717 216.064 63.1957 215.984 63.5317 215.824C63.8837 215.664 64.1877 215.504 64.4437 215.344C64.4917 215.312 64.5477 215.28 64.6117 215.248C64.6757 215.2 64.7397 215.176 64.8037 215.176C64.8837 215.176 64.9717 215.232 65.0677 215.344C65.1637 215.456 65.2277 215.544 65.2597 215.608C65.0997 215.8 64.8997 215.992 64.6597 216.184C64.4197 216.376 64.1317 216.56 63.7957 216.736C63.4597 216.896 63.0597 217.024 62.5957 217.12C62.1477 217.232 61.6357 217.288 61.0597 217.288C60.4037 217.288 59.7797 217.184 59.1877 216.976C58.6117 216.752 58.0997 216.424 57.6517 215.992C57.2197 215.56 56.8757 215.024 56.6197 214.384C56.3637 213.728 56.2357 212.968 56.2357 212.104C56.2357 211.288 56.3877 210.544 56.6917 209.872C57.0117 209.184 57.4117 208.6 57.8917 208.12C58.3877 207.64 58.9317 207.264 59.5237 206.992C60.1317 206.72 60.7237 206.584 61.2997 206.584C61.8917 206.584 62.4277 206.648 62.9077 206.776C63.3877 206.904 63.7957 207.072 64.1317 207.28C64.4677 207.488 64.7237 207.736 64.8997 208.024C65.0917 208.296 65.1877 208.584 65.1877 208.888C65.1877 208.984 65.1077 209.064 64.9477 209.128C64.7877 209.192 64.6037 209.248 64.3957 209.296C64.2037 209.328 64.0117 209.352 63.8197 209.368C63.6437 209.384 63.5397 209.392 63.5077 209.392C63.2997 209.392 63.1317 209.296 63.0037 209.104C62.8917 208.896 62.7637 208.68 62.6197 208.456C62.4757 208.216 62.2757 208 62.0197 207.808C61.7797 207.6 61.4357 207.496 60.9877 207.496ZM75.071 214.768C75.183 214.656 75.303 214.6 75.431 214.6C75.591 214.6 75.743 214.736 75.887 215.008C75.679 215.296 75.439 215.576 75.167 215.848C74.895 216.12 74.567 216.368 74.183 216.592C73.815 216.8 73.391 216.968 72.911 217.096C72.431 217.224 71.879 217.288 71.255 217.288C70.615 217.288 70.007 217.184 69.431 216.976C68.855 216.768 68.343 216.448 67.895 216.016C67.463 215.584 67.111 215.048 66.839 214.408C66.583 213.768 66.455 213.016 66.455 212.152C66.455 211.336 66.607 210.584 66.911 209.896C67.231 209.208 67.639 208.624 68.135 208.144C68.631 207.648 69.175 207.264 69.767 206.992C70.375 206.72 70.959 206.584 71.519 206.584C73.007 206.584 74.087 207.016 74.759 207.88C75.447 208.744 75.791 209.872 75.791 211.264C75.791 211.36 75.743 211.408 75.647 211.408L68.687 211.72C68.687 212.344 68.775 212.92 68.951 213.448C69.127 213.976 69.375 214.432 69.695 214.816C70.015 215.2 70.399 215.504 70.847 215.728C71.311 215.936 71.831 216.04 72.407 216.04C72.919 216.04 73.407 215.92 73.871 215.68C74.351 215.44 74.751 215.136 75.071 214.768ZM71.183 207.448C70.383 207.448 69.759 207.76 69.311 208.384C68.863 209.008 68.639 209.824 68.639 210.832L73.175 210.616C73.415 210.616 73.535 210.512 73.535 210.304C73.535 210 73.487 209.68 73.391 209.344C73.295 209.008 73.151 208.704 72.959 208.432C72.767 208.144 72.519 207.912 72.215 207.736C71.927 207.544 71.583 207.448 71.183 207.448ZM82.7712 217.12C82.3552 217.088 81.9312 217.056 81.4992 217.024C81.0672 217.008 80.6352 217 80.2032 217C79.7712 217 79.3232 217.008 78.8592 217.024C78.4112 217.056 77.9872 217.088 77.5872 217.12C77.5552 216.96 77.5392 216.832 77.5392 216.736C77.5392 216.576 77.6112 216.48 77.7552 216.448C78.1072 216.384 78.4352 216.296 78.7392 216.184C79.0432 216.056 79.1952 215.864 79.1952 215.608V202.696C79.1952 202.184 79.0912 201.84 78.8832 201.664C78.6912 201.472 78.3152 201.352 77.7552 201.304C77.5472 201.272 77.4432 201.16 77.4432 200.968C77.4432 200.872 77.4592 200.76 77.4912 200.632C77.6992 200.632 77.9872 200.624 78.3552 200.608C78.7232 200.576 79.0592 200.544 79.3632 200.512C79.7312 200.464 80.0592 200.4 80.3472 200.32C80.6352 200.24 80.8432 200.2 80.9712 200.2C81.1152 200.2 81.2112 200.232 81.2592 200.296C81.3072 200.36 81.3312 200.448 81.3312 200.56C81.3312 200.832 81.3072 201.152 81.2592 201.52C81.2112 201.872 81.1872 202.288 81.1872 202.768V215.608C81.1872 215.864 81.3312 216.056 81.6192 216.184C81.9232 216.296 82.2592 216.384 82.6272 216.448C82.7552 216.48 82.8192 216.576 82.8192 216.736C82.8192 216.832 82.8032 216.96 82.7712 217.12ZM92.9772 214.768C93.0892 214.656 93.2092 214.6 93.3372 214.6C93.4972 214.6 93.6492 214.736 93.7932 215.008C93.5852 215.296 93.3452 215.576 93.0732 215.848C92.8012 216.12 92.4732 216.368 92.0892 216.592C91.7212 216.8 91.2972 216.968 90.8172 217.096C90.3372 217.224 89.7852 217.288 89.1612 217.288C88.5212 217.288 87.9132 217.184 87.3372 216.976C86.7612 216.768 86.2492 216.448 85.8012 216.016C85.3692 215.584 85.0172 215.048 84.7452 214.408C84.4892 213.768 84.3612 213.016 84.3612 212.152C84.3612 211.336 84.5132 210.584 84.8172 209.896C85.1372 209.208 85.5452 208.624 86.0412 208.144C86.5372 207.648 87.0812 207.264 87.6732 206.992C88.2812 206.72 88.8652 206.584 89.4252 206.584C90.9132 206.584 91.9932 207.016 92.6652 207.88C93.3532 208.744 93.6972 209.872 93.6972 211.264C93.6972 211.36 93.6492 211.408 93.5532 211.408L86.5932 211.72C86.5932 212.344 86.6812 212.92 86.8572 213.448C87.0332 213.976 87.2812 214.432 87.6012 214.816C87.9212 215.2 88.3052 215.504 88.7532 215.728C89.2172 215.936 89.7372 216.04 90.3132 216.04C90.8252 216.04 91.3132 215.92 91.7772 215.68C92.2572 215.44 92.6572 215.136 92.9772 214.768ZM89.0892 207.448C88.2892 207.448 87.6652 207.76 87.2172 208.384C86.7692 209.008 86.5452 209.824 86.5452 210.832L91.0812 210.616C91.3212 210.616 91.4412 210.512 91.4412 210.304C91.4412 210 91.3932 209.68 91.2972 209.344C91.2012 209.008 91.0572 208.704 90.8652 208.432C90.6732 208.144 90.4252 207.912 90.1212 207.736C89.8332 207.544 89.4892 207.448 89.0892 207.448ZM101.085 215.584C101.165 215.504 101.229 215.456 101.277 215.44C101.341 215.424 101.389 215.416 101.421 215.416C101.565 215.416 101.693 215.52 101.805 215.728C101.389 216.192 100.941 216.568 100.461 216.856C99.9815 217.144 99.4695 217.288 98.9255 217.288C98.6055 217.288 98.3015 217.248 98.0135 217.168C97.7255 217.104 97.4775 216.968 97.2695 216.76C97.0615 216.552 96.8935 216.272 96.7655 215.92C96.6535 215.552 96.5975 215.08 96.5975 214.504V207.88H95.1575V207.616C95.1575 207.504 95.1735 207.4 95.2055 207.304C95.2535 207.208 95.3415 207.16 95.4695 207.16C95.9015 207.16 96.2535 207.048 96.5255 206.824C96.7975 206.6 97.0215 206.312 97.1975 205.96C97.3895 205.576 97.5575 205.216 97.7015 204.88C97.8455 204.544 98.0055 204.376 98.1815 204.376H98.6135V206.872H101.421C101.421 207.208 101.381 207.464 101.301 207.64C101.237 207.8 101.109 207.88 100.917 207.88H98.6135V213.832C98.6135 214.344 98.6375 214.76 98.6855 215.08C98.7335 215.384 98.8055 215.624 98.9015 215.8C98.9975 215.96 99.1095 216.064 99.2375 216.112C99.3655 216.16 99.5095 216.184 99.6695 216.184C99.9415 216.184 100.189 216.128 100.413 216.016C100.653 215.888 100.877 215.744 101.085 215.584Z" fill="#CE956E"/>
</g>
<g filter="url(#filter1_i)">
<path d="M201.408 209.992H199.632V215.272C199.632 215.624 199.792 215.864 200.112 215.992C200.448 216.12 200.952 216.224 201.624 216.304C201.816 216.336 201.912 216.472 201.912 216.712C201.912 216.824 201.896 216.96 201.864 217.12C201.432 217.088 200.904 217.056 200.28 217.024C199.672 217.008 199.072 217 198.48 217C198.064 217 197.584 217.008 197.04 217.024C196.496 217.056 195.984 217.088 195.504 217.12C195.472 216.96 195.456 216.832 195.456 216.736C195.456 216.512 195.544 216.384 195.72 216.352C196.328 216.256 196.752 216.144 196.992 216.016C197.248 215.872 197.376 215.64 197.376 215.32V203.104C197.376 202.8 197.256 202.576 197.016 202.432C196.792 202.272 196.344 202.152 195.672 202.072C195.512 202.056 195.432 201.92 195.432 201.664C195.432 201.568 195.448 201.44 195.48 201.28C195.96 201.312 196.456 201.344 196.968 201.376C197.48 201.392 197.968 201.4 198.432 201.4H201.672C203.4 201.4 204.704 201.784 205.584 202.552C206.464 203.304 206.904 204.328 206.904 205.624C206.904 205.976 206.84 206.344 206.712 206.728C206.6 207.112 206.416 207.488 206.16 207.856C205.92 208.224 205.6 208.568 205.2 208.888C204.816 209.192 204.36 209.44 203.832 209.632L207.84 215.2C208.144 215.616 208.48 215.904 208.848 216.064C209.216 216.224 209.56 216.344 209.88 216.424C210.024 216.456 210.096 216.568 210.096 216.76C210.096 216.888 210.08 217.032 210.048 217.192C209.68 217.16 209.232 217.128 208.704 217.096C208.176 217.08 207.688 217.072 207.24 217.072C206.904 217.072 206.56 216.928 206.208 216.64C205.872 216.352 205.552 215.984 205.248 215.536L201.408 209.992ZM200.904 209.008C202.024 209.008 202.888 208.776 203.496 208.312C204.104 207.832 204.408 207 204.408 205.816C204.408 205.32 204.344 204.864 204.216 204.448C204.088 204.032 203.88 203.672 203.592 203.368C203.32 203.064 202.952 202.824 202.488 202.648C202.04 202.472 201.488 202.384 200.832 202.384H199.632V209.008H200.904ZM213.322 217C213.05 217 212.77 217 212.482 217C212.21 217.016 211.954 217.032 211.714 217.048C211.474 217.064 211.266 217.08 211.09 217.096C210.914 217.112 210.802 217.12 210.754 217.12C210.754 217.104 210.746 217.048 210.73 216.952C210.714 216.856 210.706 216.784 210.706 216.736C210.706 216.576 210.778 216.48 210.922 216.448C211.338 216.368 211.674 216.272 211.93 216.16C212.186 216.048 212.314 215.864 212.314 215.608V209.08C212.314 208.6 212.226 208.256 212.05 208.048C211.89 207.84 211.53 207.712 210.97 207.664C210.762 207.632 210.658 207.52 210.658 207.328C210.658 207.248 210.674 207.144 210.706 207.016C210.914 207.016 211.202 207.008 211.57 206.992C211.954 206.96 212.266 206.928 212.506 206.896C212.874 206.832 213.202 206.768 213.49 206.704C213.778 206.624 213.986 206.584 214.114 206.584C214.338 206.584 214.45 206.704 214.45 206.944C214.45 207.168 214.426 207.44 214.378 207.76C214.33 208.064 214.306 208.472 214.306 208.984V215.608C214.306 215.864 214.426 216.048 214.666 216.16C214.922 216.272 215.274 216.368 215.722 216.448C215.85 216.48 215.914 216.576 215.914 216.736C215.914 216.784 215.906 216.856 215.89 216.952C215.89 217.048 215.882 217.104 215.866 217.12C215.818 217.12 215.706 217.112 215.53 217.096C215.37 217.08 215.17 217.064 214.93 217.048C214.69 217.032 214.426 217.016 214.138 217C213.866 217 213.594 217 213.322 217ZM211.93 202.576C211.93 202.192 212.058 201.864 212.314 201.592C212.586 201.304 212.922 201.16 213.322 201.16C213.706 201.16 214.026 201.304 214.282 201.592C214.538 201.864 214.666 202.192 214.666 202.576C214.666 202.992 214.538 203.328 214.282 203.584C214.026 203.84 213.706 203.968 213.322 203.968C212.922 203.968 212.586 203.84 212.314 203.584C212.058 203.328 211.93 202.992 211.93 202.576ZM227.853 215.632C227.853 215.872 227.997 216.056 228.285 216.184C228.573 216.296 228.893 216.384 229.245 216.448C229.389 216.48 229.461 216.576 229.461 216.736C229.461 216.832 229.445 216.96 229.413 217.12C228.997 217.088 228.589 217.056 228.189 217.024C227.789 217.008 227.357 217 226.893 217C226.461 217 226.029 217.008 225.597 217.024C225.181 217.056 224.765 217.088 224.349 217.12C224.317 216.96 224.301 216.832 224.301 216.736C224.301 216.576 224.373 216.48 224.517 216.448C224.853 216.384 225.157 216.296 225.429 216.184C225.701 216.056 225.837 215.872 225.837 215.632V210.928C225.837 210.528 225.813 210.16 225.765 209.824C225.717 209.488 225.621 209.2 225.477 208.96C225.349 208.704 225.165 208.512 224.925 208.384C224.701 208.24 224.405 208.168 224.037 208.168C223.637 208.168 223.245 208.24 222.861 208.384C222.477 208.512 222.133 208.712 221.829 208.984C221.541 209.24 221.309 209.56 221.133 209.944C220.957 210.328 220.869 210.768 220.869 211.264V215.632C220.869 215.872 221.005 216.056 221.277 216.184C221.565 216.296 221.869 216.384 222.189 216.448C222.333 216.48 222.405 216.576 222.405 216.736C222.405 216.832 222.389 216.96 222.357 217.12C221.941 217.088 221.533 217.056 221.133 217.024C220.733 217.008 220.309 217 219.861 217C219.397 217 218.957 217.008 218.541 217.024C218.125 217.056 217.717 217.088 217.317 217.12C217.285 216.96 217.269 216.832 217.269 216.736C217.269 216.576 217.341 216.48 217.485 216.448C217.837 216.384 218.157 216.296 218.445 216.184C218.733 216.056 218.877 215.864 218.877 215.608V209.08C218.877 208.6 218.789 208.256 218.613 208.048C218.453 207.84 218.093 207.712 217.533 207.664C217.325 207.632 217.221 207.52 217.221 207.328C217.221 207.248 217.237 207.144 217.269 207.016C217.477 207.016 217.765 207.008 218.133 206.992C218.517 206.96 218.829 206.928 219.069 206.896C219.437 206.832 219.765 206.768 220.053 206.704C220.341 206.624 220.549 206.584 220.677 206.584C220.901 206.584 221.013 206.704 221.013 206.944C221.013 207.168 220.989 207.44 220.941 207.76C220.893 208.064 220.869 208.472 220.869 208.984C221.557 208.216 222.213 207.624 222.837 207.208C223.477 206.792 224.173 206.584 224.925 206.584C225.901 206.584 226.629 206.872 227.109 207.448C227.605 208.008 227.853 208.792 227.853 209.8V215.632ZM232.303 216.496C231.615 216.096 231.271 215.52 231.271 214.768C231.271 213.968 231.799 213.312 232.855 212.8C232.407 212.528 232.047 212.168 231.775 211.72C231.519 211.256 231.391 210.688 231.391 210.016C231.391 209.568 231.495 209.136 231.703 208.72C231.927 208.304 232.223 207.936 232.591 207.616C232.959 207.296 233.375 207.048 233.839 206.872C234.319 206.68 234.823 206.584 235.351 206.584C236.151 206.584 236.791 206.68 237.271 206.872C237.751 207.064 238.167 207.304 238.519 207.592L240.895 206.56C241.071 206.672 241.199 206.824 241.279 207.016C241.359 207.192 241.399 207.36 241.399 207.52C241.399 207.872 241.279 208.048 241.039 208.048L240.175 208.024C239.871 208.024 239.503 208.072 239.071 208.168C239.455 208.664 239.647 209.272 239.647 209.992C239.647 210.488 239.535 210.944 239.311 211.36C239.087 211.776 238.783 212.136 238.399 212.44C238.015 212.728 237.559 212.96 237.031 213.136C236.503 213.296 235.943 213.376 235.351 213.376C235.015 213.376 234.695 213.36 234.391 213.328C234.087 213.28 233.799 213.208 233.527 213.112C233.111 213.304 232.823 213.496 232.663 213.688C232.503 213.88 232.423 214.064 232.423 214.24C232.423 214.368 232.463 214.496 232.543 214.624C232.623 214.736 232.767 214.84 232.975 214.936C233.199 215.016 233.503 215.088 233.887 215.152C234.287 215.2 234.791 215.224 235.399 215.224C236.119 215.224 236.799 215.28 237.439 215.392C238.079 215.504 238.639 215.688 239.119 215.944C239.615 216.2 239.999 216.536 240.271 216.952C240.559 217.368 240.703 217.872 240.703 218.464C240.703 219.12 240.567 219.712 240.295 220.24C240.039 220.768 239.671 221.216 239.191 221.584C238.727 221.968 238.159 222.256 237.487 222.448C236.831 222.656 236.111 222.76 235.327 222.76C233.823 222.76 232.647 222.488 231.799 221.944C230.951 221.4 230.527 220.528 230.527 219.328C230.527 218.976 230.583 218.648 230.695 218.344C230.807 218.056 230.943 217.792 231.103 217.552C231.279 217.312 231.471 217.104 231.679 216.928C231.903 216.752 232.111 216.608 232.303 216.496ZM232.879 216.784C232.495 217.152 232.279 217.616 232.231 218.176C232.215 218.304 232.207 218.432 232.207 218.56C232.207 218.688 232.207 218.824 232.207 218.968C232.223 219.304 232.311 219.64 232.471 219.976C232.631 220.312 232.863 220.608 233.167 220.864C233.471 221.12 233.847 221.328 234.295 221.488C234.743 221.648 235.263 221.728 235.855 221.728C236.959 221.728 237.759 221.48 238.255 220.984C238.767 220.504 239.023 219.904 239.023 219.184C239.023 218.88 238.959 218.6 238.831 218.344C238.703 218.088 238.487 217.864 238.183 217.672C237.879 217.496 237.479 217.352 236.983 217.24C236.487 217.144 235.871 217.096 235.135 217.096C234.719 217.096 234.311 217.072 233.911 217.024C233.527 216.976 233.183 216.896 232.879 216.784ZM235.591 212.536C236.183 212.536 236.655 212.344 237.007 211.96C237.359 211.576 237.535 211.048 237.535 210.376C237.535 210.024 237.495 209.68 237.415 209.344C237.351 208.992 237.231 208.68 237.055 208.408C236.879 208.12 236.639 207.888 236.335 207.712C236.047 207.536 235.679 207.448 235.231 207.448C234.671 207.448 234.223 207.632 233.887 208C233.567 208.368 233.407 208.872 233.407 209.512C233.407 209.88 233.439 210.248 233.503 210.616C233.583 210.968 233.703 211.288 233.863 211.576C234.039 211.864 234.263 212.096 234.535 212.272C234.823 212.448 235.175 212.536 235.591 212.536Z" fill="#CE956E"/>
</g>
<g filter="url(#filter2_i)">
<path d="M357.467 209.992H355.691V215.272C355.691 215.624 355.851 215.864 356.171 215.992C356.507 216.12 357.011 216.224 357.683 216.304C357.875 216.336 357.971 216.472 357.971 216.712C357.971 216.824 357.955 216.96 357.923 217.12C357.491 217.088 356.963 217.056 356.339 217.024C355.731 217.008 355.131 217 354.539 217C354.123 217 353.643 217.008 353.099 217.024C352.555 217.056 352.043 217.088 351.563 217.12C351.531 216.96 351.515 216.832 351.515 216.736C351.515 216.512 351.603 216.384 351.779 216.352C352.387 216.256 352.811 216.144 353.051 216.016C353.307 215.872 353.435 215.64 353.435 215.32V203.104C353.435 202.8 353.315 202.576 353.075 202.432C352.851 202.272 352.403 202.152 351.731 202.072C351.571 202.056 351.491 201.92 351.491 201.664C351.491 201.568 351.507 201.44 351.539 201.28C352.019 201.312 352.515 201.344 353.027 201.376C353.539 201.392 354.027 201.4 354.491 201.4H357.731C359.459 201.4 360.763 201.784 361.643 202.552C362.523 203.304 362.963 204.328 362.963 205.624C362.963 205.976 362.899 206.344 362.771 206.728C362.659 207.112 362.475 207.488 362.219 207.856C361.979 208.224 361.659 208.568 361.259 208.888C360.875 209.192 360.419 209.44 359.891 209.632L363.899 215.2C364.203 215.616 364.539 215.904 364.907 216.064C365.275 216.224 365.619 216.344 365.939 216.424C366.083 216.456 366.155 216.568 366.155 216.76C366.155 216.888 366.139 217.032 366.107 217.192C365.739 217.16 365.291 217.128 364.763 217.096C364.235 217.08 363.747 217.072 363.299 217.072C362.963 217.072 362.619 216.928 362.267 216.64C361.931 216.352 361.611 215.984 361.307 215.536L357.467 209.992ZM356.963 209.008C358.083 209.008 358.947 208.776 359.555 208.312C360.163 207.832 360.467 207 360.467 205.816C360.467 205.32 360.403 204.864 360.275 204.448C360.147 204.032 359.939 203.672 359.651 203.368C359.379 203.064 359.011 202.824 358.547 202.648C358.099 202.472 357.547 202.384 356.891 202.384H355.691V209.008H356.963ZM369.381 217C369.109 217 368.829 217 368.541 217C368.269 217.016 368.013 217.032 367.773 217.048C367.533 217.064 367.325 217.08 367.149 217.096C366.973 217.112 366.861 217.12 366.813 217.12C366.813 217.104 366.805 217.048 366.789 216.952C366.773 216.856 366.765 216.784 366.765 216.736C366.765 216.576 366.837 216.48 366.981 216.448C367.397 216.368 367.733 216.272 367.989 216.16C368.245 216.048 368.373 215.864 368.373 215.608V209.08C368.373 208.6 368.285 208.256 368.109 208.048C367.949 207.84 367.589 207.712 367.029 207.664C366.821 207.632 366.717 207.52 366.717 207.328C366.717 207.248 366.733 207.144 366.765 207.016C366.973 207.016 367.261 207.008 367.629 206.992C368.013 206.96 368.325 206.928 368.565 206.896C368.933 206.832 369.261 206.768 369.549 206.704C369.837 206.624 370.045 206.584 370.173 206.584C370.397 206.584 370.509 206.704 370.509 206.944C370.509 207.168 370.485 207.44 370.437 207.76C370.389 208.064 370.365 208.472 370.365 208.984V215.608C370.365 215.864 370.485 216.048 370.725 216.16C370.981 216.272 371.333 216.368 371.781 216.448C371.909 216.48 371.973 216.576 371.973 216.736C371.973 216.784 371.965 216.856 371.949 216.952C371.949 217.048 371.941 217.104 371.925 217.12C371.877 217.12 371.765 217.112 371.589 217.096C371.429 217.08 371.229 217.064 370.989 217.048C370.749 217.032 370.485 217.016 370.197 217C369.925 217 369.653 217 369.381 217ZM367.989 202.576C367.989 202.192 368.117 201.864 368.373 201.592C368.645 201.304 368.981 201.16 369.381 201.16C369.765 201.16 370.085 201.304 370.341 201.592C370.597 201.864 370.725 202.192 370.725 202.576C370.725 202.992 370.597 203.328 370.341 203.584C370.085 203.84 369.765 203.968 369.381 203.968C368.981 203.968 368.645 203.84 368.373 203.584C368.117 203.328 367.989 202.992 367.989 202.576ZM376.735 215.08C377.135 215.496 377.575 215.824 378.055 216.064C378.535 216.304 379.087 216.424 379.711 216.424C380.623 216.424 381.311 216.04 381.775 215.272C382.255 214.504 382.495 213.52 382.495 212.32C382.495 211.712 382.423 211.136 382.279 210.592C382.151 210.032 381.951 209.544 381.679 209.128C381.423 208.712 381.111 208.384 380.743 208.144C380.375 207.904 379.951 207.784 379.471 207.784C379.151 207.784 378.831 207.88 378.511 208.072C378.191 208.248 377.895 208.48 377.623 208.768C377.367 209.056 377.151 209.384 376.975 209.752C376.815 210.104 376.735 210.464 376.735 210.832V215.08ZM374.743 202.696C374.743 202.216 374.655 201.88 374.479 201.688C374.319 201.48 373.959 201.352 373.399 201.304C373.191 201.272 373.087 201.16 373.087 200.968C373.087 200.872 373.103 200.76 373.135 200.632C373.343 200.632 373.631 200.624 373.999 200.608C374.383 200.576 374.695 200.544 374.935 200.512C375.303 200.464 375.631 200.4 375.919 200.32C376.207 200.24 376.415 200.2 376.543 200.2C376.767 200.2 376.879 200.32 376.879 200.56C376.879 200.832 376.855 201.144 376.807 201.496C376.759 201.848 376.735 202.28 376.735 202.792V208.792C377.327 208.008 377.911 207.448 378.487 207.112C379.063 206.76 379.767 206.584 380.599 206.584C381.143 206.584 381.663 206.696 382.159 206.92C382.671 207.144 383.119 207.48 383.503 207.928C383.887 208.36 384.191 208.896 384.415 209.536C384.655 210.176 384.775 210.904 384.775 211.72C384.775 212.616 384.607 213.408 384.271 214.096C383.935 214.784 383.519 215.368 383.023 215.848C382.527 216.312 381.983 216.672 381.391 216.928C380.799 217.168 380.255 217.288 379.759 217.288C379.151 217.288 378.567 217.216 378.007 217.072C377.447 216.928 376.943 216.744 376.495 216.52C376.319 216.536 376.151 216.584 375.991 216.664C375.831 216.744 375.687 216.832 375.559 216.928C375.431 217.008 375.311 217.08 375.199 217.144C375.103 217.224 375.023 217.264 374.959 217.264C374.831 217.264 374.711 217.232 374.599 217.168C374.615 216.912 374.631 216.688 374.647 216.496C374.663 216.288 374.679 216.088 374.695 215.896C374.711 215.704 374.719 215.512 374.719 215.32C374.735 215.112 374.743 214.88 374.743 214.624V202.696ZM389.79 215.08C390.19 215.496 390.63 215.824 391.11 216.064C391.59 216.304 392.142 216.424 392.766 216.424C393.678 216.424 394.366 216.04 394.83 215.272C395.31 214.504 395.55 213.52 395.55 212.32C395.55 211.712 395.478 211.136 395.334 210.592C395.206 210.032 395.006 209.544 394.734 209.128C394.478 208.712 394.166 208.384 393.798 208.144C393.43 207.904 393.006 207.784 392.526 207.784C392.206 207.784 391.886 207.88 391.566 208.072C391.246 208.248 390.95 208.48 390.678 208.768C390.422 209.056 390.206 209.384 390.03 209.752C389.87 210.104 389.79 210.464 389.79 210.832V215.08ZM387.798 202.696C387.798 202.216 387.71 201.88 387.534 201.688C387.374 201.48 387.014 201.352 386.454 201.304C386.246 201.272 386.142 201.16 386.142 200.968C386.142 200.872 386.158 200.76 386.19 200.632C386.398 200.632 386.686 200.624 387.054 200.608C387.438 200.576 387.75 200.544 387.99 200.512C388.358 200.464 388.686 200.4 388.974 200.32C389.262 200.24 389.47 200.2 389.598 200.2C389.822 200.2 389.934 200.32 389.934 200.56C389.934 200.832 389.91 201.144 389.862 201.496C389.814 201.848 389.79 202.28 389.79 202.792V208.792C390.382 208.008 390.966 207.448 391.542 207.112C392.118 206.76 392.822 206.584 393.654 206.584C394.198 206.584 394.718 206.696 395.214 206.92C395.726 207.144 396.174 207.48 396.558 207.928C396.942 208.36 397.246 208.896 397.47 209.536C397.71 210.176 397.83 210.904 397.83 211.72C397.83 212.616 397.662 213.408 397.326 214.096C396.99 214.784 396.574 215.368 396.078 215.848C395.582 216.312 395.038 216.672 394.446 216.928C393.854 217.168 393.31 217.288 392.814 217.288C392.206 217.288 391.622 217.216 391.062 217.072C390.502 216.928 389.998 216.744 389.55 216.52C389.374 216.536 389.206 216.584 389.046 216.664C388.886 216.744 388.742 216.832 388.614 216.928C388.486 217.008 388.366 217.08 388.254 217.144C388.158 217.224 388.078 217.264 388.014 217.264C387.886 217.264 387.766 217.232 387.654 217.168C387.67 216.912 387.686 216.688 387.702 216.496C387.718 216.288 387.734 216.088 387.75 215.896C387.766 215.704 387.774 215.512 387.774 215.32C387.79 215.112 387.798 214.88 387.798 214.624V202.696ZM399.509 211.936C399.509 211.2 399.645 210.504 399.917 209.848C400.205 209.192 400.589 208.624 401.069 208.144C401.549 207.664 402.109 207.288 402.749 207.016C403.405 206.728 404.109 206.584 404.861 206.584C405.645 206.584 406.365 206.72 407.021 206.992C407.677 207.248 408.237 207.608 408.701 208.072C409.181 208.536 409.549 209.104 409.805 209.776C410.077 210.432 410.213 211.152 410.213 211.936C410.213 212.688 410.069 213.392 409.781 214.048C409.509 214.688 409.133 215.248 408.653 215.728C408.173 216.208 407.605 216.592 406.949 216.88C406.309 217.152 405.613 217.288 404.861 217.288C404.077 217.288 403.357 217.16 402.701 216.904C402.045 216.632 401.477 216.264 400.997 215.8C400.533 215.336 400.165 214.776 399.893 214.12C399.637 213.464 399.509 212.736 399.509 211.936ZM401.765 211.144C401.765 211.736 401.829 212.344 401.957 212.968C402.085 213.592 402.277 214.16 402.533 214.672C402.805 215.168 403.149 215.584 403.565 215.92C403.981 216.24 404.485 216.4 405.077 216.4C405.989 216.4 406.693 216.08 407.189 215.44C407.701 214.8 407.957 213.976 407.957 212.968C407.957 212.376 407.893 211.76 407.765 211.12C407.653 210.464 407.461 209.872 407.189 209.344C406.933 208.8 406.589 208.352 406.157 208C405.741 207.648 405.221 207.472 404.597 207.472C403.749 207.472 403.061 207.768 402.533 208.36C402.021 208.936 401.765 209.864 401.765 211.144ZM422.419 215.632C422.419 215.872 422.563 216.056 422.851 216.184C423.139 216.296 423.459 216.384 423.811 216.448C423.955 216.48 424.027 216.576 424.027 216.736C424.027 216.832 424.011 216.96 423.979 217.12C423.563 217.088 423.155 217.056 422.755 217.024C422.355 217.008 421.923 217 421.459 217C421.027 217 420.595 217.008 420.163 217.024C419.747 217.056 419.331 217.088 418.915 217.12C418.883 216.96 418.867 216.832 418.867 216.736C418.867 216.576 418.939 216.48 419.083 216.448C419.419 216.384 419.723 216.296 419.995 216.184C420.267 216.056 420.403 215.872 420.403 215.632V210.928C420.403 210.528 420.379 210.16 420.331 209.824C420.283 209.488 420.187 209.2 420.043 208.96C419.915 208.704 419.731 208.512 419.491 208.384C419.267 208.24 418.971 208.168 418.603 208.168C418.203 208.168 417.811 208.24 417.427 208.384C417.043 208.512 416.699 208.712 416.395 208.984C416.107 209.24 415.875 209.56 415.699 209.944C415.523 210.328 415.435 210.768 415.435 211.264V215.632C415.435 215.872 415.571 216.056 415.843 216.184C416.131 216.296 416.435 216.384 416.755 216.448C416.899 216.48 416.971 216.576 416.971 216.736C416.971 216.832 416.955 216.96 416.923 217.12C416.507 217.088 416.099 217.056 415.699 217.024C415.299 217.008 414.875 217 414.427 217C413.963 217 413.523 217.008 413.107 217.024C412.691 217.056 412.283 217.088 411.883 217.12C411.851 216.96 411.835 216.832 411.835 216.736C411.835 216.576 411.907 216.48 412.051 216.448C412.403 216.384 412.723 216.296 413.011 216.184C413.299 216.056 413.443 215.864 413.443 215.608V209.08C413.443 208.6 413.355 208.256 413.179 208.048C413.019 207.84 412.659 207.712 412.099 207.664C411.891 207.632 411.787 207.52 411.787 207.328C411.787 207.248 411.803 207.144 411.835 207.016C412.043 207.016 412.331 207.008 412.699 206.992C413.083 206.96 413.395 206.928 413.635 206.896C414.003 206.832 414.331 206.768 414.619 206.704C414.907 206.624 415.115 206.584 415.243 206.584C415.467 206.584 415.579 206.704 415.579 206.944C415.579 207.168 415.555 207.44 415.507 207.76C415.459 208.064 415.435 208.472 415.435 208.984C416.123 208.216 416.779 207.624 417.403 207.208C418.043 206.792 418.739 206.584 419.491 206.584C420.467 206.584 421.195 206.872 421.675 207.448C422.171 208.008 422.419 208.792 422.419 209.8V215.632Z" fill="#CE956E"/>
</g>
<g filter="url(#filter3_i)">
<path d="M180.37 483.384V489.528H184.114C184.434 489.528 184.658 489.376 184.786 489.072C184.93 488.752 185.042 488.368 185.122 487.92C185.17 487.712 185.314 487.608 185.554 487.608C185.602 487.608 185.666 487.616 185.746 487.632C185.826 487.648 185.89 487.664 185.938 487.68C185.906 488.032 185.874 488.432 185.842 488.88C185.826 489.328 185.818 489.72 185.818 490.056C185.818 490.328 185.826 490.664 185.842 491.064C185.858 491.448 185.89 491.888 185.938 492.384C185.81 492.416 185.69 492.432 185.578 492.432C185.322 492.432 185.17 492.328 185.122 492.12C185.042 491.672 184.93 491.296 184.786 490.992C184.658 490.672 184.434 490.512 184.114 490.512H180.37V496.176C180.37 496.512 180.586 496.736 181.018 496.848C181.45 496.96 182.162 497.016 183.154 497.016H184.474C184.938 497.016 185.338 496.952 185.674 496.824C186.026 496.68 186.33 496.496 186.586 496.272C186.858 496.032 187.098 495.752 187.306 495.432C187.514 495.112 187.714 494.76 187.906 494.376C187.954 494.264 188.074 494.208 188.266 494.208C188.346 494.208 188.426 494.232 188.506 494.28C188.602 494.328 188.69 494.376 188.77 494.424C188.626 494.728 188.498 495.096 188.386 495.528C188.29 495.944 188.194 496.344 188.098 496.728C188.002 497.112 187.898 497.44 187.786 497.712C187.69 497.984 187.562 498.12 187.402 498.12C187.274 498.12 187.09 498.112 186.85 498.096C186.61 498.08 186.346 498.064 186.058 498.048C185.786 498.048 185.506 498.04 185.218 498.024C184.93 498.008 184.682 498 184.474 498H179.218C178.754 498 178.258 498.008 177.73 498.024C177.202 498.056 176.698 498.088 176.218 498.12C176.186 497.96 176.17 497.832 176.17 497.736C176.17 497.512 176.25 497.384 176.41 497.352C177.018 497.24 177.45 497.12 177.706 496.992C177.978 496.864 178.114 496.64 178.114 496.32V484.104C178.114 483.784 177.994 483.568 177.754 483.456C177.53 483.328 177.082 483.2 176.41 483.072C176.25 483.04 176.17 482.904 176.17 482.664C176.17 482.584 176.17 482.52 176.17 482.472C176.186 482.408 176.202 482.344 176.218 482.28C176.906 482.328 177.482 482.36 177.946 482.376C178.41 482.392 178.826 482.4 179.194 482.4H183.922C184.642 482.4 185.266 482.376 185.794 482.328C186.322 482.28 186.674 482.256 186.85 482.256C187.058 482.256 187.194 482.392 187.258 482.664C187.338 482.92 187.402 483.232 187.45 483.6C187.498 483.968 187.554 484.36 187.618 484.776C187.682 485.192 187.802 485.544 187.978 485.832C187.85 485.928 187.706 485.976 187.546 485.976C187.338 485.976 187.202 485.904 187.138 485.76C186.946 485.344 186.762 484.992 186.586 484.704C186.41 484.4 186.202 484.152 185.962 483.96C185.738 483.768 185.458 483.624 185.122 483.528C184.802 483.432 184.402 483.384 183.922 483.384H180.37ZM200.446 497.352C200.622 497.352 200.718 497.52 200.734 497.856C200.318 498.144 199.79 498.288 199.15 498.288C198.798 498.288 198.494 498.232 198.238 498.12C197.982 498.024 197.766 497.888 197.59 497.712C197.414 497.536 197.278 497.336 197.182 497.112C197.086 496.888 197.022 496.656 196.99 496.416C196.59 497.136 196.11 497.632 195.55 497.904C195.006 498.16 194.374 498.288 193.654 498.288C193.334 498.288 192.99 498.256 192.622 498.192C192.27 498.144 191.934 498.032 191.614 497.856C191.294 497.68 191.03 497.432 190.822 497.112C190.614 496.792 190.51 496.368 190.51 495.84C190.51 495.248 190.646 494.752 190.918 494.352C191.206 493.936 191.566 493.6 191.998 493.344C192.446 493.072 192.926 492.856 193.438 492.696C193.966 492.536 194.47 492.4 194.95 492.288C195.222 492.24 195.47 492.192 195.694 492.144C195.934 492.08 196.142 492.016 196.318 491.952C196.542 491.888 196.678 491.8 196.726 491.688C196.79 491.576 196.822 491.36 196.822 491.04C196.822 490.288 196.678 489.672 196.39 489.192C196.102 488.696 195.59 488.448 194.854 488.448C194.582 488.448 194.35 488.48 194.158 488.544C193.966 488.608 193.806 488.712 193.678 488.856C193.55 488.984 193.438 489.16 193.342 489.384C193.246 489.608 193.15 489.872 193.054 490.176C193.006 490.352 192.894 490.48 192.718 490.56C192.558 490.64 192.278 490.736 191.878 490.848C191.782 490.88 191.662 490.912 191.518 490.944C191.374 490.976 191.254 490.992 191.158 490.992C190.998 490.992 190.918 490.824 190.918 490.488C190.918 490.136 191.054 489.784 191.326 489.432C191.598 489.08 191.942 488.768 192.358 488.496C192.79 488.224 193.254 488.008 193.75 487.848C194.246 487.672 194.718 487.584 195.166 487.584C195.726 487.584 196.23 487.632 196.678 487.728C197.126 487.824 197.51 488 197.83 488.256C198.15 488.512 198.39 488.856 198.55 489.288C198.726 489.72 198.814 490.28 198.814 490.968V495.096C198.814 495.656 198.83 496.064 198.862 496.32C198.91 496.56 198.974 496.752 199.054 496.896C199.166 497.12 199.286 497.272 199.414 497.352C199.558 497.416 199.702 497.448 199.846 497.448C200.022 497.448 200.142 497.432 200.206 497.4C200.286 497.368 200.366 497.352 200.446 497.352ZM196.822 492.672L196.054 492.792C195.638 492.872 195.23 492.968 194.83 493.08C194.446 493.192 194.102 493.352 193.798 493.56C193.494 493.752 193.246 494 193.054 494.304C192.878 494.608 192.79 494.984 192.79 495.432C192.79 496.04 192.942 496.504 193.246 496.824C193.566 497.144 193.958 497.304 194.422 497.304C194.726 497.304 195.022 497.24 195.31 497.112C195.614 496.968 195.87 496.776 196.078 496.536C196.302 496.28 196.478 495.984 196.606 495.648C196.75 495.312 196.822 494.944 196.822 494.544V492.672ZM208.645 487.608C209.109 487.608 209.453 487.72 209.677 487.944C209.901 488.168 210.013 488.416 210.013 488.688C210.013 488.784 209.997 488.872 209.965 488.952C209.933 489.032 209.853 489.12 209.725 489.216C209.613 489.296 209.445 489.4 209.221 489.528C209.013 489.64 208.717 489.784 208.333 489.96C208.189 489.784 208.013 489.632 207.805 489.504C207.613 489.376 207.397 489.312 207.157 489.312C206.885 489.312 206.637 489.392 206.413 489.552C206.189 489.696 205.997 489.904 205.837 490.176C205.677 490.432 205.549 490.736 205.453 491.088C205.373 491.424 205.333 491.776 205.333 492.144V496.272C205.333 496.624 205.517 496.888 205.885 497.064C206.253 497.224 206.781 497.352 207.469 497.448C207.629 497.48 207.709 497.576 207.709 497.736C207.709 497.832 207.693 497.96 207.661 498.12C207.485 498.104 207.261 498.088 206.989 498.072C206.733 498.072 206.461 498.064 206.173 498.048C205.885 498.032 205.589 498.016 205.285 498C204.981 498 204.701 498 204.445 498C204.013 498 203.565 498.008 203.101 498.024C202.637 498.056 202.197 498.088 201.781 498.12C201.749 497.96 201.733 497.832 201.733 497.736C201.733 497.576 201.805 497.48 201.949 497.448C202.317 497.384 202.637 497.288 202.909 497.16C203.197 497.032 203.341 496.848 203.341 496.608V490.512C203.341 490.176 203.317 489.896 203.269 489.672C203.237 489.448 203.173 489.272 203.077 489.144C202.981 489 202.837 488.896 202.645 488.832C202.469 488.768 202.237 488.72 201.949 488.688C201.741 488.656 201.637 488.552 201.637 488.376C201.637 488.28 201.653 488.168 201.685 488.04C201.893 488.04 202.181 488.032 202.549 488.016C202.933 487.984 203.245 487.952 203.485 487.92C203.837 487.856 204.141 487.792 204.397 487.728C204.669 487.648 204.869 487.608 204.997 487.608C205.221 487.608 205.333 487.728 205.333 487.968V489.576C205.845 489.016 206.357 488.552 206.869 488.184C207.397 487.8 207.989 487.608 208.645 487.608ZM217.739 487.608C218.203 487.608 218.547 487.72 218.771 487.944C218.995 488.168 219.107 488.416 219.107 488.688C219.107 488.784 219.091 488.872 219.059 488.952C219.027 489.032 218.947 489.12 218.819 489.216C218.707 489.296 218.539 489.4 218.315 489.528C218.107 489.64 217.811 489.784 217.427 489.96C217.283 489.784 217.107 489.632 216.899 489.504C216.707 489.376 216.491 489.312 216.251 489.312C215.979 489.312 215.731 489.392 215.507 489.552C215.283 489.696 215.091 489.904 214.931 490.176C214.771 490.432 214.643 490.736 214.547 491.088C214.467 491.424 214.427 491.776 214.427 492.144V496.272C214.427 496.624 214.611 496.888 214.979 497.064C215.347 497.224 215.875 497.352 216.563 497.448C216.723 497.48 216.803 497.576 216.803 497.736C216.803 497.832 216.787 497.96 216.755 498.12C216.579 498.104 216.355 498.088 216.083 498.072C215.827 498.072 215.555 498.064 215.267 498.048C214.979 498.032 214.683 498.016 214.379 498C214.075 498 213.795 498 213.539 498C213.107 498 212.659 498.008 212.195 498.024C211.731 498.056 211.291 498.088 210.875 498.12C210.843 497.96 210.827 497.832 210.827 497.736C210.827 497.576 210.899 497.48 211.043 497.448C211.411 497.384 211.731 497.288 212.003 497.16C212.291 497.032 212.435 496.848 212.435 496.608V490.512C212.435 490.176 212.411 489.896 212.363 489.672C212.331 489.448 212.267 489.272 212.171 489.144C212.075 489 211.931 488.896 211.739 488.832C211.563 488.768 211.331 488.72 211.043 488.688C210.835 488.656 210.731 488.552 210.731 488.376C210.731 488.28 210.747 488.168 210.779 488.04C210.987 488.04 211.275 488.032 211.643 488.016C212.027 487.984 212.339 487.952 212.579 487.92C212.931 487.856 213.235 487.792 213.491 487.728C213.763 487.648 213.963 487.608 214.091 487.608C214.315 487.608 214.427 487.728 214.427 487.968V489.576C214.939 489.016 215.451 488.552 215.963 488.184C216.491 487.8 217.083 487.608 217.739 487.608ZM222.537 498C222.265 498 221.985 498 221.697 498C221.425 498.016 221.169 498.032 220.929 498.048C220.689 498.064 220.481 498.08 220.305 498.096C220.129 498.112 220.017 498.12 219.969 498.12C219.969 498.104 219.961 498.048 219.945 497.952C219.929 497.856 219.921 497.784 219.921 497.736C219.921 497.576 219.993 497.48 220.137 497.448C220.553 497.368 220.889 497.272 221.145 497.16C221.401 497.048 221.529 496.864 221.529 496.608V490.08C221.529 489.6 221.441 489.256 221.265 489.048C221.105 488.84 220.745 488.712 220.185 488.664C219.977 488.632 219.873 488.52 219.873 488.328C219.873 488.248 219.889 488.144 219.921 488.016C220.129 488.016 220.417 488.008 220.785 487.992C221.169 487.96 221.481 487.928 221.721 487.896C222.089 487.832 222.417 487.768 222.705 487.704C222.993 487.624 223.201 487.584 223.329 487.584C223.553 487.584 223.665 487.704 223.665 487.944C223.665 488.168 223.641 488.44 223.593 488.76C223.545 489.064 223.521 489.472 223.521 489.984V496.608C223.521 496.864 223.641 497.048 223.881 497.16C224.137 497.272 224.489 497.368 224.937 497.448C225.065 497.48 225.129 497.576 225.129 497.736C225.129 497.784 225.121 497.856 225.105 497.952C225.105 498.048 225.097 498.104 225.081 498.12C225.033 498.12 224.921 498.112 224.745 498.096C224.585 498.08 224.385 498.064 224.145 498.048C223.905 498.032 223.641 498.016 223.353 498C223.081 498 222.809 498 222.537 498ZM221.145 483.576C221.145 483.192 221.273 482.864 221.529 482.592C221.801 482.304 222.137 482.16 222.537 482.16C222.921 482.16 223.241 482.304 223.497 482.592C223.753 482.864 223.881 483.192 223.881 483.576C223.881 483.992 223.753 484.328 223.497 484.584C223.241 484.84 222.921 484.968 222.537 484.968C222.137 484.968 221.801 484.84 221.529 484.584C221.273 484.328 221.145 483.992 221.145 483.576ZM237.067 496.632C237.067 496.872 237.211 497.056 237.499 497.184C237.787 497.296 238.107 497.384 238.459 497.448C238.603 497.48 238.675 497.576 238.675 497.736C238.675 497.832 238.659 497.96 238.627 498.12C238.211 498.088 237.803 498.056 237.403 498.024C237.003 498.008 236.571 498 236.107 498C235.675 498 235.243 498.008 234.811 498.024C234.395 498.056 233.979 498.088 233.563 498.12C233.531 497.96 233.515 497.832 233.515 497.736C233.515 497.576 233.587 497.48 233.731 497.448C234.067 497.384 234.371 497.296 234.643 497.184C234.915 497.056 235.051 496.872 235.051 496.632V491.928C235.051 491.528 235.027 491.16 234.979 490.824C234.931 490.488 234.835 490.2 234.691 489.96C234.563 489.704 234.379 489.512 234.139 489.384C233.915 489.24 233.619 489.168 233.251 489.168C232.851 489.168 232.459 489.24 232.075 489.384C231.691 489.512 231.347 489.712 231.043 489.984C230.755 490.24 230.523 490.56 230.347 490.944C230.171 491.328 230.083 491.768 230.083 492.264V496.632C230.083 496.872 230.219 497.056 230.491 497.184C230.779 497.296 231.083 497.384 231.403 497.448C231.547 497.48 231.619 497.576 231.619 497.736C231.619 497.832 231.603 497.96 231.571 498.12C231.155 498.088 230.747 498.056 230.347 498.024C229.947 498.008 229.523 498 229.075 498C228.611 498 228.171 498.008 227.755 498.024C227.339 498.056 226.931 498.088 226.531 498.12C226.499 497.96 226.483 497.832 226.483 497.736C226.483 497.576 226.555 497.48 226.699 497.448C227.051 497.384 227.371 497.296 227.659 497.184C227.947 497.056 228.091 496.864 228.091 496.608V490.08C228.091 489.6 228.003 489.256 227.827 489.048C227.667 488.84 227.307 488.712 226.747 488.664C226.539 488.632 226.435 488.52 226.435 488.328C226.435 488.248 226.451 488.144 226.483 488.016C226.691 488.016 226.979 488.008 227.347 487.992C227.731 487.96 228.043 487.928 228.283 487.896C228.651 487.832 228.979 487.768 229.267 487.704C229.555 487.624 229.763 487.584 229.891 487.584C230.115 487.584 230.227 487.704 230.227 487.944C230.227 488.168 230.203 488.44 230.155 488.76C230.107 489.064 230.083 489.472 230.083 489.984C230.771 489.216 231.427 488.624 232.051 488.208C232.691 487.792 233.387 487.584 234.139 487.584C235.115 487.584 235.843 487.872 236.323 488.448C236.819 489.008 237.067 489.792 237.067 490.8V496.632ZM241.518 497.496C240.83 497.096 240.486 496.52 240.486 495.768C240.486 494.968 241.014 494.312 242.07 493.8C241.622 493.528 241.262 493.168 240.99 492.72C240.734 492.256 240.606 491.688 240.606 491.016C240.606 490.568 240.71 490.136 240.918 489.72C241.142 489.304 241.438 488.936 241.806 488.616C242.174 488.296 242.59 488.048 243.054 487.872C243.534 487.68 244.038 487.584 244.566 487.584C245.366 487.584 246.006 487.68 246.486 487.872C246.966 488.064 247.382 488.304 247.734 488.592L250.11 487.56C250.286 487.672 250.414 487.824 250.494 488.016C250.574 488.192 250.614 488.36 250.614 488.52C250.614 488.872 250.494 489.048 250.254 489.048L249.39 489.024C249.086 489.024 248.718 489.072 248.286 489.168C248.67 489.664 248.862 490.272 248.862 490.992C248.862 491.488 248.75 491.944 248.526 492.36C248.302 492.776 247.998 493.136 247.614 493.44C247.23 493.728 246.774 493.96 246.246 494.136C245.718 494.296 245.158 494.376 244.566 494.376C244.23 494.376 243.91 494.36 243.606 494.328C243.302 494.28 243.014 494.208 242.742 494.112C242.326 494.304 242.038 494.496 241.878 494.688C241.718 494.88 241.638 495.064 241.638 495.24C241.638 495.368 241.678 495.496 241.758 495.624C241.838 495.736 241.982 495.84 242.19 495.936C242.414 496.016 242.718 496.088 243.102 496.152C243.502 496.2 244.006 496.224 244.614 496.224C245.334 496.224 246.014 496.28 246.654 496.392C247.294 496.504 247.854 496.688 248.334 496.944C248.83 497.2 249.214 497.536 249.486 497.952C249.774 498.368 249.918 498.872 249.918 499.464C249.918 500.12 249.782 500.712 249.51 501.24C249.254 501.768 248.886 502.216 248.406 502.584C247.942 502.968 247.374 503.256 246.702 503.448C246.046 503.656 245.326 503.76 244.542 503.76C243.038 503.76 241.862 503.488 241.014 502.944C240.166 502.4 239.742 501.528 239.742 500.328C239.742 499.976 239.798 499.648 239.91 499.344C240.022 499.056 240.158 498.792 240.318 498.552C240.494 498.312 240.686 498.104 240.894 497.928C241.118 497.752 241.326 497.608 241.518 497.496ZM242.094 497.784C241.71 498.152 241.494 498.616 241.446 499.176C241.43 499.304 241.422 499.432 241.422 499.56C241.422 499.688 241.422 499.824 241.422 499.968C241.438 500.304 241.526 500.64 241.686 500.976C241.846 501.312 242.078 501.608 242.382 501.864C242.686 502.12 243.062 502.328 243.51 502.488C243.958 502.648 244.478 502.728 245.07 502.728C246.174 502.728 246.974 502.48 247.47 501.984C247.982 501.504 248.238 500.904 248.238 500.184C248.238 499.88 248.174 499.6 248.046 499.344C247.918 499.088 247.702 498.864 247.398 498.672C247.094 498.496 246.694 498.352 246.198 498.24C245.702 498.144 245.086 498.096 244.35 498.096C243.934 498.096 243.526 498.072 243.126 498.024C242.742 497.976 242.398 497.896 242.094 497.784ZM244.806 493.536C245.398 493.536 245.87 493.344 246.222 492.96C246.574 492.576 246.75 492.048 246.75 491.376C246.75 491.024 246.71 490.68 246.63 490.344C246.566 489.992 246.446 489.68 246.27 489.408C246.094 489.12 245.854 488.888 245.55 488.712C245.262 488.536 244.894 488.448 244.446 488.448C243.886 488.448 243.438 488.632 243.102 489C242.782 489.368 242.622 489.872 242.622 490.512C242.622 490.88 242.654 491.248 242.718 491.616C242.798 491.968 242.918 492.288 243.078 492.576C243.254 492.864 243.478 493.096 243.75 493.272C244.038 493.448 244.39 493.536 244.806 493.536ZM257.996 490.536C257.868 490.536 257.772 490.512 257.708 490.464C257.66 490.4 257.628 490.336 257.612 490.272C257.5 489.616 257.236 489.152 256.82 488.88C256.42 488.592 255.916 488.448 255.308 488.448C254.844 488.448 254.428 488.584 254.06 488.856C253.708 489.112 253.532 489.472 253.532 489.936C253.532 490.352 253.692 490.704 254.012 490.992C254.348 491.264 254.948 491.536 255.812 491.808C256.276 491.952 256.7 492.112 257.084 492.288C257.484 492.464 257.82 492.68 258.092 492.936C258.38 493.176 258.604 493.48 258.764 493.848C258.924 494.2 259.004 494.624 259.004 495.12C259.004 495.536 258.924 495.936 258.764 496.32C258.62 496.704 258.388 497.04 258.068 497.328C257.764 497.616 257.372 497.848 256.892 498.024C256.428 498.2 255.868 498.288 255.212 498.288C254.7 498.288 254.124 498.224 253.484 498.096C252.86 497.984 252.292 497.784 251.78 497.496C251.748 497.08 251.716 496.648 251.684 496.2C251.668 495.736 251.66 495.272 251.66 494.808H251.9C252.06 494.808 252.196 494.84 252.308 494.904C252.42 494.952 252.484 495.04 252.5 495.168C252.564 495.84 252.82 496.384 253.268 496.8C253.732 497.2 254.372 497.4 255.188 497.4C255.844 497.4 256.348 497.256 256.7 496.968C257.052 496.664 257.228 496.256 257.228 495.744C257.228 495.216 257.036 494.816 256.652 494.544C256.268 494.256 255.7 494 254.948 493.776C254.004 493.488 253.26 493.112 252.716 492.648C252.188 492.184 251.924 491.504 251.924 490.608C251.924 490.192 252.004 489.8 252.164 489.432C252.324 489.064 252.548 488.744 252.836 488.472C253.124 488.2 253.476 487.984 253.892 487.824C254.308 487.664 254.772 487.584 255.284 487.584C255.924 487.584 256.524 487.672 257.084 487.848C257.66 488.008 258.108 488.184 258.428 488.376C258.444 488.504 258.46 488.664 258.476 488.856C258.492 489.032 258.5 489.224 258.5 489.432C258.516 489.624 258.524 489.824 258.524 490.032C258.54 490.224 258.548 490.4 258.548 490.56L257.996 490.536Z" fill="#CE956E"/>
</g>
<defs>
<filter id="filter0_i" x="22.1392" y="200.2" width="79.6663" height="17.088" filterUnits="userSpaceOnUse" color-interpolation-filters="sRGB">
<feFlood flood-opacity="0" result="BackgroundImageFix"/>
<feBlend mode="normal" in="SourceGraphic" in2="BackgroundImageFix" result="shape"/>
<feColorMatrix in="SourceAlpha" type="matrix" values="0 0 0 0 0 0 0 0 0 0 0 0 0 0 0 0 0 0 127 0" result="hardAlpha"/>
<feOffset/>
<feGaussianBlur stdDeviation="2"/>
<feComposite in2="hardAlpha" operator="arithmetic" k2="-1" k3="1"/>
<feColorMatrix type="matrix" values="0 0 0 0 0.831373 0 0 0 0 0.552941 0 0 0 0 0.329412 0 0 0 0.25 0"/>
<feBlend mode="normal" in2="shape" result="effect1_innerShadow"/>
</filter>
<filter id="filter1_i" x="195.432" y="201.16" width="45.9668" height="21.6" filterUnits="userSpaceOnUse" color-interpolation-filters="sRGB">
<feFlood flood-opacity="0" result="BackgroundImageFix"/>
<feBlend mode="normal" in="SourceGraphic" in2="BackgroundImageFix" result="shape"/>
<feColorMatrix in="SourceAlpha" type="matrix" values="0 0 0 0 0 0 0 0 0 0 0 0 0 0 0 0 0 0 127 0" result="hardAlpha"/>
<feOffset/>
<feGaussianBlur stdDeviation="2"/>
<feComposite in2="hardAlpha" operator="arithmetic" k2="-1" k3="1"/>
<feColorMatrix type="matrix" values="0 0 0 0 0.831373 0 0 0 0 0.552941 0 0 0 0 0.329412 0 0 0 0.25 0"/>
<feBlend mode="normal" in2="shape" result="effect1_innerShadow"/>
</filter>
<filter id="filter2_i" x="351.491" y="200.2" width="72.5362" height="17.088" filterUnits="userSpaceOnUse" color-interpolation-filters="sRGB">
<feFlood flood-opacity="0" result="BackgroundImageFix"/>
<feBlend mode="normal" in="SourceGraphic" in2="BackgroundImageFix" result="shape"/>
<feColorMatrix in="SourceAlpha" type="matrix" values="0 0 0 0 0 0 0 0 0 0 0 0 0 0 0 0 0 0 127 0" result="hardAlpha"/>
<feOffset/>
<feGaussianBlur stdDeviation="2"/>
<feComposite in2="hardAlpha" operator="arithmetic" k2="-1" k3="1"/>
<feColorMatrix type="matrix" values="0 0 0 0 0.831373 0 0 0 0 0.552941 0 0 0 0 0.329412 0 0 0 0.25 0"/>
<feBlend mode="normal" in2="shape" result="effect1_innerShadow"/>
</filter>
<filter id="filter3_i" x="176.17" y="482.16" width="82.8339" height="21.6" filterUnits="userSpaceOnUse" color-interpolation-filters="sRGB">
<feFlood flood-opacity="0" result="BackgroundImageFix"/>
<feBlend mode="normal" in="SourceGraphic" in2="BackgroundImageFix" result="shape"/>
<feColorMatrix in="SourceAlpha" type="matrix" values="0 0 0 0 0 0 0 0 0 0 0 0 0 0 0 0 0 0 127 0" result="hardAlpha"/>
<feOffset/>
<feGaussianBlur stdDeviation="2"/>
<feComposite in2="hardAlpha" operator="arithmetic" k2="-1" k3="1"/>
<feColorMatrix type="matrix" values="0 0 0 0 0.831373 0 0 0 0 0.552941 0 0 0 0 0.329412 0 0 0 0.25 0"/>
<feBlend mode="normal" in2="shape" result="effect1_innerShadow"/>
</filter>
<clipPath id="clip0">
<rect width="130" height="181" fill="white" transform="translate(312 11.3302) rotate(-5)"/>
</clipPath>
<clipPath id="clip1">
<rect width="52" height="61" fill="white" transform="translate(187 77)"/>
</clipPath>
</defs>
</svg>
